<svg width="24" height="24" viewBox="0 0 24 24" fill="none" xmlns="http://www.w3.org/2000/svg">
<path d="M7.01504 23.9949C6.22441 23.9991 5.44089 23.8455 4.71041 23.543C3.97993 23.2405 3.31719 22.7952 2.76104 22.2333C2.20274 21.6753 1.75986 21.0128 1.45769 20.2836C1.15553 19.5544 1 18.7728 1 17.9835C1 17.1941 1.15553 16.4125 1.45769 15.6833C1.75986 14.9541 2.20274 14.2916 2.76104 13.7337L15.2074 1.28245C15.6366 0.860382 16.1467 0.529488 16.707 0.309678C17.2674 0.0898679 17.8664 -0.0143149 18.4681 0.00339759C19.0697 0.0211101 19.6616 0.160352 20.2081 0.412745C20.7545 0.665139 21.2443 1.02547 21.6478 1.47205C22.0948 1.87566 22.4554 2.36555 22.7081 2.91222C22.9607 3.45889 23.1 4.05103 23.1177 4.65299C23.1355 5.25494 23.0312 5.85425 22.8111 6.41483C22.5911 6.97541 22.2599 7.48566 21.8374 7.91485L10.141 19.6101C9.61273 20.1384 8.89619 20.4352 8.14904 20.4352C7.4019 20.4352 6.68535 20.1384 6.15704 19.6101C5.62873 19.0817 5.33193 18.3652 5.33193 17.6181C5.33193 16.8709 5.62873 16.1544 6.15704 15.6261L14.077 7.70605C14.2072 7.5888 14.3775 7.52598 14.5526 7.53056C14.7278 7.53515 14.8945 7.60677 15.0184 7.73067C15.1423 7.85457 15.2139 8.02129 15.2185 8.19645C15.2231 8.37161 15.1603 8.54185 15.043 8.67205L7.12304 16.5921C6.85109 16.864 6.69831 17.2329 6.69831 17.6175C6.69831 18.0021 6.85109 18.3709 7.12304 18.6429C7.39499 18.9148 7.76384 19.0676 8.14844 19.0676C8.53304 19.0676 8.90189 18.9148 9.17384 18.6429L20.8714 6.94525C21.1623 6.64059 21.3888 6.28033 21.5371 5.88607C21.6854 5.4918 21.7527 5.07165 21.7347 4.65079C21.7168 4.22992 21.6141 3.81701 21.4328 3.43679C21.2514 3.05657 20.9952 2.71687 20.6794 2.43805C20.4005 2.12245 20.0606 1.86642 19.6803 1.6853C19.3 1.50418 18.8871 1.4017 18.4662 1.38399C18.0453 1.36629 17.6252 1.43373 17.2311 1.58227C16.8369 1.73081 16.4767 1.9574 16.1722 2.24845L3.72704 14.7045C2.86266 15.5781 2.37928 16.7584 2.38255 17.9873C2.38582 19.2163 2.87547 20.394 3.74449 21.263C4.6135 22.132 5.7912 22.6217 7.02016 22.6249C8.24913 22.6282 9.42942 22.1448 10.303 21.2805L22.7506 8.82445C22.8808 8.7072 23.0511 8.64438 23.2262 8.64896C23.4014 8.65354 23.5681 8.72517 23.692 8.84907C23.8159 8.97297 23.8875 9.13969 23.8921 9.31485C23.8967 9.49001 23.8339 9.66025 23.7166 9.79045L11.2702 22.2477C10.7113 22.8052 10.0475 23.2466 9.31722 23.5464C8.58692 23.8463 7.8045 23.9987 7.01504 23.9949Z" fill="black"/>
</svg>
