<svg width="24" height="24" viewBox="0 0 24 24" fill="none" xmlns="http://www.w3.org/2000/svg">
<path d="M2 0V16.2252H10.244L18.2528 24V16.2252H22.8392V0H2ZM6.0728 10.2936C5.66548 10.2938 5.26723 10.1733 4.92844 9.94715C4.58965 9.72102 4.32553 9.3995 4.16949 9.02325C4.01345 8.64701 3.9725 8.23293 4.05182 7.83341C4.13114 7.43388 4.32717 7.06685 4.6151 6.77875C4.90304 6.49065 5.26995 6.29441 5.66943 6.21486C6.06891 6.1353 6.48301 6.17601 6.85934 6.33183C7.23568 6.48765 7.55736 6.75159 7.78368 7.09025C8.01 7.42891 8.1308 7.82708 8.1308 8.2344C8.13096 8.50476 8.07784 8.7725 7.97449 9.02233C7.87114 9.27216 7.71957 9.49917 7.52845 9.6904C7.33733 9.88163 7.11041 10.0333 6.86064 10.1368C6.61087 10.2403 6.34316 10.2936 6.0728 10.2936ZM12.6104 10.2936C12.2031 10.2936 11.805 10.1728 11.4664 9.94656C11.1277 9.72029 10.8638 9.39869 10.7079 9.02242C10.5521 8.64615 10.5113 8.23212 10.5908 7.83267C10.6702 7.43322 10.8663 7.06631 11.1543 6.77833C11.4423 6.49034 11.8092 6.29422 12.2087 6.21477C12.6081 6.13531 13.0222 6.17609 13.3984 6.33195C13.7747 6.4878 14.0963 6.75174 14.3226 7.09037C14.5488 7.429 14.6696 7.82713 14.6696 8.2344C14.6698 8.50496 14.6166 8.7729 14.5131 9.02289C14.4096 9.27287 14.2578 9.49999 14.0664 9.69125C13.875 9.88251 13.6478 10.0342 13.3978 10.1375C13.1477 10.2409 12.8798 10.2939 12.6092 10.2936H12.6104ZM19.1384 10.2936C18.7312 10.2931 18.3333 10.172 17.995 9.9454C17.6567 9.71884 17.3931 9.39707 17.2377 9.02076C17.0822 8.64445 17.0417 8.23049 17.1215 7.8312C17.2012 7.43191 17.3975 7.06522 17.6856 6.77748C17.9737 6.48974 18.3406 6.29385 18.74 6.21459C19.1393 6.13533 19.5532 6.17625 19.9294 6.33218C20.3055 6.4881 20.627 6.75204 20.8531 7.09062C21.0793 7.4292 21.2 7.82723 21.2 8.2344C21.2002 8.50517 21.1469 8.7733 21.0432 9.02344C20.9396 9.27358 20.7876 9.50081 20.596 9.6921C20.4043 9.8834 20.1768 10.035 19.9265 10.1382C19.6762 10.2414 19.408 10.2942 19.1372 10.2936H19.1384Z" fill="black"/>
</svg>
