<svg width="24" height="24" viewBox="0 0 24 24" fill="none" xmlns="http://www.w3.org/2000/svg">
<path d="M17.2348 12.072L15.9616 10.8L10.102 16.65L7.5556 14.1036L6.28 15.3768L10.102 19.2L17.2348 12.072ZM20.2 2.4H19V0H16.6V2.4H7V0H4.6V2.4H3.4C2.76515 2.40254 2.15716 2.65652 1.70915 3.10633C1.26113 3.55614 1.00959 4.16514 1.0096 4.8L1 21.6C1.00158 22.236 1.25495 22.8456 1.70469 23.2953C2.15444 23.7451 2.76397 23.9984 3.4 24H20.2C20.8355 23.9968 21.4442 23.743 21.8936 23.2936C22.343 22.8442 22.5968 22.2355 22.6 21.6V4.8C22.5968 4.16445 22.343 3.55583 21.8936 3.10643C21.4442 2.65702 20.8355 2.40315 20.2 2.4ZM20.2 21.6H3.4V8.4H20.2V21.6Z" fill="black"/>
</svg>
