<svg width="24" height="24" viewBox="0 0 24 24" fill="none" xmlns="http://www.w3.org/2000/svg">
<path d="M18.4661 20.4662C18.4654 20.895 18.6134 21.3108 18.885 21.6426C19.1565 21.9745 19.5348 22.2019 19.9553 22.286C20.3758 22.3702 20.8124 22.3059 21.1908 22.1041C21.5692 21.9023 21.8658 21.5756 22.0302 21.1795C22.1946 20.7835 22.2165 20.3427 22.0923 19.9322C21.968 19.5218 21.7052 19.1672 21.3487 18.9289C20.9922 18.6906 20.5641 18.5833 20.1374 18.6253C19.7106 18.6673 19.3116 18.856 19.0085 19.1593C18.8323 19.3276 18.6931 19.5306 18.5997 19.7556C18.5063 19.9806 18.4608 20.2226 18.4661 20.4662Z" fill="black"/>
<path d="M23.7332 4.117C23.6496 4.02912 23.5488 3.95938 23.4371 3.91211C23.3254 3.86483 23.2052 3.84103 23.0839 3.84219H5.76021C5.75221 3.77339 5.72941 3.65098 5.69181 3.47498C5.66181 3.29977 5.63061 3.15337 5.61501 3.04656C5.58616 2.91707 5.54888 2.78959 5.50341 2.66495C5.4639 2.53619 5.39903 2.41664 5.3126 2.31334C5.23344 2.22172 5.13726 2.14632 5.02939 2.09134C4.90086 2.02894 4.75944 1.99769 4.61658 2.00013H0.925268C0.803994 1.99898 0.683779 2.02278 0.572094 2.07005C0.460408 2.11733 0.359639 2.18707 0.276049 2.27494C0.187812 2.35857 0.117761 2.45948 0.0702723 2.57139C0.0227832 2.6833 -0.00112489 2.8038 4.06537e-05 2.92536C-0.00111388 3.04663 0.0226861 3.16685 0.0699616 3.27854C0.117237 3.39022 0.186977 3.49099 0.274849 3.57458C0.358439 3.66245 0.459208 3.73219 0.570894 3.77947C0.682579 3.82674 0.802795 3.85054 0.924068 3.84939H3.86776L6.42023 15.7201C6.40503 15.7585 6.30583 15.9422 6.12262 16.271C5.94742 16.5998 5.80101 16.883 5.69421 17.1266C5.60426 17.3057 5.54966 17.5004 5.53341 17.7002C5.53712 17.9444 5.63579 18.1776 5.80851 18.3503C5.98122 18.523 6.21441 18.6217 6.45863 18.6254H21.2335C21.4729 18.6168 21.6997 18.5156 21.8661 18.3432C22.0324 18.1707 22.1254 17.9404 22.1254 17.7008C22.1254 17.4612 22.0324 17.2309 21.8661 17.0585C21.6997 16.886 21.4729 16.7848 21.2335 16.7762H7.96468C8.13364 16.4907 8.25027 16.1774 8.30909 15.8509C8.30635 15.7428 8.29349 15.6351 8.27069 15.5293C8.24789 15.4093 8.21669 15.2893 8.18669 15.1477C8.15668 15.0061 8.13268 14.9077 8.12548 14.8345L23.1823 13.0753C23.4118 13.0517 23.6228 12.9393 23.7704 12.7621C23.92 12.5935 24.0017 12.3754 23.9996 12.15V4.76742C24.0034 4.64636 23.9817 4.52585 23.9358 4.41376C23.8899 4.30168 23.8208 4.20055 23.7332 4.117Z" fill="black"/>
<path d="M5.54168 20.4662C5.54097 20.895 5.68902 21.3108 5.96059 21.6426C6.23216 21.9745 6.61042 22.2019 7.0309 22.286C7.45138 22.3702 7.88802 22.3059 8.2664 22.1041C8.64477 21.9023 8.94145 21.5756 9.10583 21.1795C9.27022 20.7835 9.29214 20.3427 9.16786 19.9322C9.04358 19.5218 8.78081 19.1672 8.42432 18.9289C8.06784 18.6906 7.63972 18.5833 7.21297 18.6253C6.78622 18.6673 6.38725 18.856 6.08409 19.1593C5.9079 19.3276 5.76869 19.5306 5.6753 19.7556C5.58192 19.9806 5.53641 20.2226 5.54168 20.4662Z" fill="black"/>
</svg>
