<svg width="24" height="24" viewBox="0 0 24 24" fill="none" xmlns="http://www.w3.org/2000/svg">
<g clip-path="url(#clip0_141_5204)">
<path d="M12 0C9.62663 0 7.30655 0.703788 5.33316 2.02236C3.35977 3.34094 1.8217 5.21509 0.913451 7.4078C0.00519941 9.60051 -0.232441 12.0133 0.230582 14.3411C0.693605 16.6689 1.83649 18.8071 3.51472 20.4853C5.19295 22.1635 7.33115 23.3064 9.65892 23.7694C11.9867 24.2324 14.3995 23.9948 16.5922 23.0866C18.7849 22.1783 20.6591 20.6402 21.9776 18.6668C23.2962 16.6935 24 14.3734 24 12C23.9908 8.82023 22.7236 5.77331 20.4751 3.52486C18.2267 1.27641 15.1798 0.00918146 12 0V0ZM9.60001 18L3.60001 12L5.28001 10.32L9.60001 14.64L18.72 5.52L20.4 7.2L9.60001 18Z" fill="black"/>
</g>
<defs>
<clipPath id="clip0_141_5204">
<rect width="24" height="24" fill="white"/>
</clipPath>
</defs>
</svg>
