<svg width="24" height="24" viewBox="0 0 24 24" fill="none" xmlns="http://www.w3.org/2000/svg">
<path d="M0 18.1757V23.0357H4.86L18.9504 8.83613L14.0916 3.96173L0 18.1757ZM22.6632 5.12333C22.7857 5.00759 22.8832 4.86807 22.9499 4.71331C23.0165 4.55856 23.0509 4.39183 23.0509 4.22333C23.0509 4.05483 23.0165 3.8881 22.9499 3.73335C22.8832 3.57859 22.7857 3.43908 22.6632 3.32333L19.7184 0.380931C19.6015 0.260454 19.4616 0.164672 19.307 0.0992639C19.1524 0.0338557 18.9863 0.000152588 18.8184 0.000152588C18.6505 0.000152588 18.4844 0.0338557 18.3298 0.0992639C18.1752 0.164672 18.0353 0.260454 17.9184 0.380931L15.618 2.68493L20.478 7.54493L22.6632 5.12333Z" fill="black"/>
</svg>
