<svg width="24" height="24" viewBox="0 0 24 24" fill="none" xmlns="http://www.w3.org/2000/svg">
<path d="M12 4.00003C9.4078 3.99426 6.87448 4.7727 4.73281 6.2331C2.59114 7.69351 0.941293 9.76757 0 12.1828C0.946208 14.5947 2.59726 16.6655 4.73783 18.1252C6.8784 19.5848 9.40914 20.3655 12 20.3655C14.5909 20.3655 17.1216 19.5848 19.2622 18.1252C21.4027 16.6655 23.0538 14.5947 24 12.1828C23.058 9.76805 21.408 7.69445 19.2665 6.23416C17.125 4.77386 14.592 3.99509 12 4.00003ZM12 17.638C11.2816 17.6454 10.5689 17.5094 9.90368 17.2378C9.23849 16.9663 8.63418 16.5647 8.12614 16.0567C7.6181 15.5487 7.21655 14.9443 6.94501 14.2791C6.67348 13.614 6.53742 12.9013 6.5448 12.1828C6.5448 10.736 7.11954 9.34847 8.14259 8.32542C9.16564 7.30237 10.5532 6.72763 12 6.72763C13.4468 6.72763 14.8344 7.30237 15.8574 8.32542C16.8805 9.34847 17.4552 10.736 17.4552 12.1828C17.4616 12.901 17.3249 13.6133 17.053 14.278C16.7811 14.9427 16.3795 15.5467 15.8717 16.0545C15.3638 16.5624 14.7599 16.9639 14.0952 17.2358C13.4304 17.5077 12.7182 17.6444 12 17.638ZM12 8.91403C11.5681 8.90575 11.139 8.98458 10.7383 9.14583C10.3375 9.30708 9.97341 9.54743 9.66763 9.85253C9.36186 10.1576 9.1207 10.5212 8.95857 10.9216C8.79644 11.322 8.71667 11.7509 8.724 12.1828C8.71667 12.6147 8.79644 13.0437 8.95857 13.444C9.1207 13.8444 9.36186 14.208 9.66763 14.5131C9.97341 14.8182 10.3375 15.0586 10.7383 15.2198C11.139 15.3811 11.5681 15.4599 12 15.4516C12.4315 15.4596 12.8601 15.3805 13.2603 15.2191C13.6605 15.0576 14.024 14.8171 14.3292 14.512C14.6343 14.2069 14.8748 13.8433 15.0362 13.4431C15.1977 13.0429 15.2768 12.6143 15.2688 12.1828C15.2769 11.7513 15.198 11.3225 15.0366 10.9222C14.8752 10.5218 14.6348 10.1582 14.3296 9.85289C14.0244 9.54762 13.6609 9.30703 13.2606 9.14551C12.8603 8.98398 12.4316 8.90485 12 8.91283V8.91403Z" fill="black"/>
</svg>
