<svg width="24" height="24" viewBox="0 0 24 24" fill="none" xmlns="http://www.w3.org/2000/svg">
<path d="M6.44502 5.30132H0.261425V17.8773H6.44502V5.30132Z" fill="black"/>
<path d="M18.1837 2H8.01731V9.08H20.3845V4.0964L18.1837 2Z" fill="black"/>
<path d="M8.0172 18.9776H0V22.3316H24V10.9604H8.0172V18.9776ZM17.0832 12.8468H18.708V14.4716H17.0832V12.8468ZM17.0832 15.6764H18.708V17.3012H17.0832V15.6764ZM13.6248 12.8468H15.2496V14.4716H13.6248V12.8468ZM13.6248 15.6764H15.2496V17.3012H13.6248V15.6764ZM10.218 12.8468H11.8428V14.4716H10.218V12.8468ZM10.1664 15.6764H11.79V17.3012H10.1664V15.6764Z" fill="black"/>
</svg>
