<svg width="24" height="24" viewBox="0 0 24 24" fill="none" xmlns="http://www.w3.org/2000/svg">
<path d="M23.3476 3.12C23.3476 1.0608 17.7292 0 12.1744 0C6.6196 0 1 1.0656 1 3.12C1.02251 3.37817 1.10746 3.62699 1.24752 3.84503C1.38759 4.06307 1.57856 4.24378 1.804 4.3716L9.4912 14.88V22.7112L9.5188 23.1912H9.97L10.1692 23.1816L14.8576 18.4932V14.88L22.5448 4.3572C22.7698 4.23251 22.9608 4.0545 23.101 3.83879C23.2412 3.62308 23.3263 3.37627 23.3488 3.12H23.3476ZM12.1732 0.8856C18.4504 0.8856 22.4524 2.2056 22.4524 3.1164C22.4524 4.0272 18.4516 5.3472 12.1732 5.3472C5.8948 5.3472 1.894 4.0284 1.894 3.12C1.894 2.2116 5.9044 0.8856 12.1732 0.8856Z" fill="black"/>
</svg>
