<svg width="55" height="24" viewBox="0 0 55 24" fill="none" xmlns="http://www.w3.org/2000/svg">
<g clip-path="url(#clip0_141_5411)">
<path d="M54.0056 12.0055C54.0254 14.4039 53.3322 16.7542 52.0141 18.7581C50.6959 20.762 48.8121 22.3291 46.6018 23.2606C44.3915 24.192 41.9543 24.4459 39.5995 23.9899C37.2447 23.534 35.0784 22.3888 33.3755 20.6996C31.6727 19.0104 30.51 16.8534 30.0351 14.5023C29.5602 12.1513 29.7944 9.71211 30.708 7.49437C31.6216 5.27664 33.1735 3.3803 35.1666 2.04601C37.1598 0.711713 39.5044 -0.000389506 41.903 6.38335e-05C43.4861 -0.00668709 45.0549 0.298527 46.52 0.89827C47.9851 1.49801 49.3176 2.38053 50.4415 3.49541C51.5654 4.61029 52.4587 5.93568 53.0702 7.39586C53.6817 8.85604 53.9996 10.4224 54.0056 12.0055ZM12.1028 6.38335e-05C9.73427 0.020851 7.42485 0.742132 5.46548 2.07304C3.5061 3.40396 1.98443 5.28497 1.09215 7.47912C0.199862 9.67326 -0.0231206 12.0824 0.451289 14.4031C0.925698 16.7237 2.07628 18.852 3.75809 20.52C5.4399 22.1879 7.5777 23.3208 9.9022 23.776C12.2267 24.2311 14.6339 23.9882 16.8206 23.0777C19.0073 22.1673 20.8756 20.6301 22.1902 18.6598C23.5049 16.6894 24.207 14.3741 24.2081 12.0055C24.2018 10.4223 23.8836 8.85585 23.2717 7.39566C22.6599 5.93546 21.7664 4.61009 20.6423 3.49524C19.5182 2.3804 18.1855 1.49793 16.7202 0.898216C15.255 0.298507 13.686 -0.00668751 12.1028 6.38335e-05Z" fill="black"/>
</g>
<defs>
<clipPath id="clip0_141_5411">
<rect width="54.0054" height="24" fill="white"/>
</clipPath>
</defs>
</svg>
