<svg width="24" height="24" viewBox="0 0 24 24" fill="none" xmlns="http://www.w3.org/2000/svg">
<g clip-path="url(#clip0_141_5462)">
<path d="M10.3475 10.6549L9.23988 1.93217L7.3739 3.86433L3.66955 0L0 3.8108L3.69595 7.62038L2.11917 9.24715L10.3475 10.6549Z" fill="black"/>
<path d="M13.607 10.3751L14.711 1.65232L16.5806 3.58449L20.2765 0L23.9461 3.8108L20.2501 7.33932L21.8269 8.96487L13.607 10.3751Z" fill="black"/>
<path d="M10.4025 13.3452L9.29856 22.0679L7.42898 20.1358L3.73303 24.0001L0.0634766 20.1893L3.75943 16.3785L2.18265 14.753L10.4025 13.3452Z" fill="black"/>
<path d="M13.6609 13.626L14.7649 22.3487L16.6345 20.4166L20.3304 24.001L24 20.1902L20.304 16.6617L21.8808 15.0362L13.6609 13.626Z" fill="black"/>
</g>
<defs>
<clipPath id="clip0_141_5462">
<rect width="24" height="24" fill="white"/>
</clipPath>
</defs>
</svg>
