<svg width="24" height="24" viewBox="0 0 24 24" fill="none" xmlns="http://www.w3.org/2000/svg">
<g clip-path="url(#clip0_141_5262)">
<path d="M0 0L1.104 8.72528L2.9736 6.79296L6.6768 10.6588L10.344 6.84653L6.6504 3.02572L8.226 1.40023L0 0Z" fill="black"/>
<path d="M23.9376 0L22.8336 8.72528L20.964 6.79174L17.2692 10.3776L13.602 6.56649L17.2968 3.03546L15.7212 1.40997L23.9376 0Z" fill="black"/>
<path d="M0.0632629 24L1.16726 15.2747L3.03686 17.2083L6.73046 13.3412L10.3977 17.1535L6.70286 20.9658L8.27966 22.5949L0.0632629 24Z" fill="black"/>
<path d="M24 24L22.8959 15.2747L21.0263 17.2083L17.3315 13.6224L13.6643 17.4347L17.3591 20.9658L15.7836 22.5912L24 24Z" fill="black"/>
</g>
<defs>
<clipPath id="clip0_141_5262">
<rect width="24" height="24" fill="white"/>
</clipPath>
</defs>
</svg>
