<svg width="24" height="24" viewBox="0 0 24 24" fill="none" xmlns="http://www.w3.org/2000/svg">
<g clip-path="url(#clip0_141_5291)">
<path d="M15.5156 0.00111685H9.79163C7.65777 -0.134418 5.55041 0.533362 3.88403 1.87312C3.27499 2.39067 2.78247 3.03135 2.43892 3.753C2.09537 4.47464 1.90858 5.26087 1.89083 6.05992C1.89312 6.7279 2.03077 7.38849 2.29549 8.00178C2.5602 8.61508 2.94648 9.16835 3.431 9.62819C3.91551 10.088 4.4882 10.4449 5.11448 10.6772C5.74077 10.9095 6.40764 11.0125 7.07483 10.9799C7.39883 10.9799 7.75763 10.9463 8.07323 10.9163L8.02763 11.0291C7.85908 11.3743 7.76893 11.7526 7.76363 12.1367C7.79707 12.9069 8.11073 13.6384 8.64563 14.1935L8.69963 14.2643L8.60243 14.2715C6.56081 14.2927 4.55172 14.7856 2.73203 15.7115C2.03095 16.0794 1.43966 16.6261 1.01815 17.2963C0.596649 17.9665 0.359934 18.7363 0.332031 19.5275C0.332031 21.7559 2.40683 24.0047 7.05203 24.0047C12.4448 24.0047 15.2708 21.0299 15.2708 18.0899C15.2708 15.9167 13.9976 14.8391 12.644 13.7027L11.498 12.8147C11.2692 12.6723 11.0778 12.4772 10.9398 12.2457C10.8018 12.0141 10.7212 11.7529 10.7048 11.4839C10.7301 11.1924 10.8161 10.9095 10.9573 10.6532C11.0984 10.397 11.2916 10.1731 11.5244 9.99592L11.5664 9.95392C12.7988 8.98312 14.1968 7.88272 14.1968 5.50192C14.1861 4.67288 13.9798 3.85809 13.5947 3.12387C13.2095 2.38966 12.6564 1.75676 11.9804 1.27672H13.8764C13.8994 1.27666 13.9219 1.26999 13.9412 1.25752L15.5816 0.229117C15.6086 0.217754 15.6305 0.196921 15.6432 0.17054C15.6559 0.144158 15.6585 0.114048 15.6505 0.0858782C15.6426 0.0577081 15.6246 0.0334208 15.6 0.0175886C15.5753 0.00175645 15.5458 -0.00452854 15.5168 -8.32062e-05L15.5156 0.00111685ZM8.57243 22.6883C5.28563 22.6883 3.07763 21.1535 3.07763 18.8675C3.07763 17.3759 3.98123 16.2911 5.76083 15.6455C6.82837 15.3343 7.93229 15.1652 9.04403 15.1427C9.28447 15.1357 9.5251 15.1461 9.76403 15.1739C12.0656 16.8107 13.172 17.6711 13.172 19.3079C13.172 21.3935 11.4116 22.6883 8.57843 22.6883H8.57243ZM8.54363 10.1015C5.78363 10.1015 4.63883 6.47512 4.63883 4.53352C4.59061 3.70584 4.83343 2.88738 5.32523 2.21992C5.59378 1.8999 5.92853 1.64192 6.3064 1.46376C6.68427 1.28559 7.09628 1.19149 7.51403 1.18792C10.0424 1.18792 11.4476 4.59352 11.4476 6.94792C11.494 7.78023 11.2147 8.59793 10.6688 9.22792C10.0929 9.77195 9.3357 10.0832 8.54363 10.1015Z" fill="black"/>
<path d="M23.5365 11.2103H20.5185V8.21033C20.5185 8.1785 20.5059 8.14798 20.4834 8.12548C20.4609 8.10297 20.4304 8.09033 20.3985 8.09033H19.1013C19.0695 8.09033 19.039 8.10297 19.0165 8.12548C18.994 8.14798 18.9813 8.1785 18.9813 8.21033V11.2163H15.9813C15.9495 11.2163 15.919 11.229 15.8965 11.2515C15.874 11.274 15.8613 11.3045 15.8613 11.3363V12.6491C15.8613 12.681 15.874 12.7115 15.8965 12.734C15.919 12.7565 15.9495 12.7691 15.9813 12.7691H18.9813V15.7931C18.9813 15.825 18.994 15.8555 19.0165 15.878C19.039 15.9005 19.0695 15.9131 19.1013 15.9131H20.3985C20.4304 15.9131 20.4609 15.9005 20.4834 15.878C20.5059 15.8555 20.5185 15.825 20.5185 15.7931V12.7727H23.5341C23.566 12.7727 23.5965 12.7601 23.619 12.7376C23.6415 12.7151 23.6541 12.6846 23.6541 12.6527V11.3327C23.6541 11.3009 23.6415 11.2704 23.619 11.2479C23.5965 11.2254 23.566 11.2127 23.5341 11.2127L23.5365 11.2103Z" fill="black"/>
</g>
<defs>
<clipPath id="clip0_141_5291">
<rect width="24" height="24" fill="white"/>
</clipPath>
</defs>
</svg>
