<svg width="24" height="24" viewBox="0 0 24 24" fill="none" xmlns="http://www.w3.org/2000/svg">
<path d="M17.2235 0.0361328C16.2227 0.0363527 15.2344 0.258442 14.3298 0.686416C13.4251 1.11439 12.6265 1.7376 11.9916 2.5112C11.1067 1.43386 9.91046 0.656265 8.56666 0.284822C7.22286 -0.08662 5.7971 -0.0337673 4.48449 0.436149C3.17187 0.906065 2.03652 1.77009 1.23378 2.90999C0.431038 4.0499 0.000124252 5.41 0 6.8042C0 9.73015 1.73998 13.1046 5.17558 16.8532C7.12248 18.9405 9.24521 20.8566 11.5203 22.5804L12 22.9401L12.4797 22.5804C14.7549 20.8559 16.8776 18.9389 18.8244 16.8508C22.26 13.1034 24 9.72775 24 6.8018C23.9968 5.00654 23.2815 3.28587 22.0111 2.01744C20.7406 0.749014 19.0188 0.0364476 17.2235 0.0361328Z" fill="black"/>
</svg>
