<svg width="24" height="24" viewBox="0 0 24 24" fill="none" xmlns="http://www.w3.org/2000/svg">
<path d="M21.7512 0H2.2488C1.65287 0.00158367 1.0818 0.239019 0.660408 0.660408C0.239019 1.0818 0.00158367 1.65287 0 2.2488L0 21.7512C0.00158367 22.3471 0.239019 22.9182 0.660408 23.3396C1.0818 23.761 1.65287 23.9984 2.2488 24H21.7512C22.3471 23.9984 22.9182 23.761 23.3396 23.3396C23.761 22.9182 23.9984 22.3471 24 21.7512V2.2488C24 1.65238 23.7631 1.08039 23.3413 0.658658C22.9196 0.236926 22.3476 0 21.7512 0ZM16.4124 3.6672C16.4143 3.26996 16.5729 2.88953 16.8538 2.60863C17.1347 2.32774 17.5152 2.16909 17.9124 2.1672H19.782C20.1792 2.16909 20.5597 2.32774 20.8406 2.60863C21.1215 2.88953 21.2801 3.26996 21.282 3.6672V5.9472C21.2801 6.34444 21.1215 6.72487 20.8406 7.00577C20.5597 7.28666 20.1792 7.44531 19.782 7.4472H17.9028C17.5056 7.44531 17.1251 7.28666 16.8442 7.00577C16.5633 6.72487 16.4047 6.34444 16.4028 5.9472V3.6672H16.4124ZM12 6.7116C13.0473 6.71065 14.0714 7.02041 14.9425 7.60167C15.8137 8.18292 16.4929 9.00956 16.8942 9.97696C17.2954 10.9444 17.4006 12.009 17.1965 13.0363C16.9924 14.0635 16.4882 15.0071 15.7477 15.7477C15.0071 16.4882 14.0635 16.9924 13.0363 17.1965C12.009 17.4006 10.9444 17.2954 9.97696 16.8942C9.00956 16.4929 8.18292 15.8137 7.60167 14.9425C7.02041 14.0714 6.71065 13.0473 6.7116 12C6.71477 10.5984 7.27296 9.25512 8.26404 8.26404C9.25512 7.27296 10.5984 6.71477 12 6.7116ZM21.7512 22.5H2.2488C2.15022 22.5003 2.05255 22.4811 1.96141 22.4436C1.87028 22.406 1.78747 22.3507 1.71776 22.281C1.64806 22.2113 1.59282 22.1285 1.55524 22.0374C1.51767 21.9462 1.49848 21.8486 1.4988 21.75V10.1796H5.4744C5.18465 11.1908 5.13369 12.2555 5.32553 13.2897C5.51737 14.324 5.94677 15.2996 6.5799 16.1396C7.21303 16.9796 8.03258 17.6611 8.97398 18.1304C9.91538 18.5997 10.9529 18.844 12.0048 18.844C13.0567 18.844 14.0942 18.5997 15.0356 18.1304C15.977 17.6611 16.7966 16.9796 17.4297 16.1396C18.0628 15.2996 18.4922 14.324 18.6841 13.2897C18.8759 12.2555 18.8249 11.1908 18.5352 10.1796H22.5096V21.75C22.5065 21.9494 22.4253 22.1396 22.2835 22.2798C22.1417 22.42 21.9506 22.4991 21.7512 22.5Z" fill="black"/>
</svg>
