<svg width="24" height="24" viewBox="0 0 24 24" fill="none" xmlns="http://www.w3.org/2000/svg">
<path d="M22.62 6.45394L24 5.07395L19.926 1L9.79576 11.1387C8.4635 10.3039 6.8705 9.98877 5.32074 10.2536C3.77098 10.5184 2.37297 11.3445 1.39346 12.5743C0.413958 13.8041 -0.0784553 15.3515 0.0101834 16.9212C0.0988221 18.4909 0.762307 19.9731 1.87403 21.0848C2.98576 22.1965 4.46789 22.86 6.03761 22.9486C7.60732 23.0373 9.15473 22.5449 10.3845 21.5654C11.6144 20.5859 12.4405 19.1878 12.7053 17.6381C12.9701 16.0883 12.655 14.4953 11.8201 13.1631L16.0345 8.96311L18.0841 11.0067L19.5709 9.5199L18.2161 8.16392L18.9517 7.42832L20.3064 8.78311L21.8928 7.17993L20.538 5.82514L21.2736 5.08955L22.62 6.45394ZM6.33381 20.6798L2.28505 16.625L3.66504 15.245L7.71379 19.2938L6.33381 20.6798Z" fill="black"/>
</svg>
