<svg width="24" height="24" viewBox="0 0 24 24" fill="none" xmlns="http://www.w3.org/2000/svg">
<g clip-path="url(#clip0_141_5216)">
<path d="M11.9904 2.56546e-08C9.61744 0.0018984 7.29831 0.707299 5.32618 2.02703C3.35405 3.34676 1.81748 5.22157 0.910698 7.41445C0.00391831 9.60733 -0.232352 12.0198 0.231754 14.347C0.69586 16.6741 1.83951 18.8114 3.51812 20.4887C5.19673 22.1659 7.33494 23.3079 9.66245 23.7701C11.99 24.2324 14.4023 23.9942 16.5944 23.0856C18.7866 22.1771 20.6602 20.639 21.9783 18.6658C23.2965 16.6927 24 14.373 24 12C24 10.4233 23.6893 8.86211 23.0856 7.40558C22.482 5.94905 21.5972 4.62575 20.4819 3.51132C19.3666 2.39689 18.0426 1.51318 16.5856 0.910689C15.1285 0.308197 13.5671 -0.00126131 11.9904 2.56546e-08ZM16.2156 13.6164L10.1676 19.7196L8.57761 18.1488L14.6268 12.0444L8.65921 6.12L10.23 4.5324L17.8056 12.0444L16.2156 13.6164Z" fill="black"/>
</g>
<defs>
<clipPath id="clip0_141_5216">
<rect width="24" height="24" fill="white"/>
</clipPath>
</defs>
</svg>
