<svg width="24" height="24" viewBox="0 0 24 24" fill="none" xmlns="http://www.w3.org/2000/svg">
<path d="M5.44993 23.9453V8.46812H0.304878V23.9465L5.44993 23.9453ZM2.88221 6.36115C3.25121 6.39234 3.62268 6.34683 3.97325 6.2275C4.32381 6.10816 4.64589 5.91757 4.91923 5.66772C5.19256 5.41787 5.41124 5.11416 5.56151 4.77569C5.71177 4.43723 5.79037 4.07133 5.79236 3.70101C5.79436 3.3307 5.7197 2.96397 5.57308 2.62391C5.42647 2.28385 5.21108 1.9778 4.94045 1.72502C4.66981 1.47224 4.3498 1.2782 4.00054 1.1551C3.65128 1.03199 3.28032 0.982494 2.911 1.00971C2.54372 0.978376 2.17393 1.02306 1.82469 1.14097C1.47544 1.25889 1.15424 1.4475 0.881126 1.69506C0.608009 1.94261 0.388834 2.24378 0.237274 2.5798C0.0857138 2.91581 0.00502006 3.27945 0.000226855 3.64803C-0.00456635 4.01661 0.0666438 4.38222 0.209415 4.72206C0.352186 5.0619 0.563455 5.36868 0.830042 5.62325C1.09663 5.87782 1.41281 6.07473 1.75887 6.20168C2.10493 6.32864 2.47344 6.38292 2.84141 6.36115H2.88221Z" fill="black"/>
<path d="M8.29846 23.9444H13.4435V15.3053C13.4231 14.8811 13.4817 14.4567 13.6163 14.0539C13.8089 13.5065 14.1658 13.032 14.6383 12.6953C15.1108 12.3585 15.6758 12.1759 16.256 12.1725C18.1206 12.1725 18.8633 13.5883 18.8633 15.6689V23.948H24V15.069C24 10.3127 21.4623 8.1025 18.0786 8.1025C17.1355 8.06427 16.2002 8.28757 15.376 8.74771C14.5519 9.20785 13.871 9.88691 13.4087 10.7098H13.4435V8.46606H8.29846C8.36805 9.92511 8.29846 23.9444 8.29846 23.9444Z" fill="black"/>
</svg>
