<svg width="24" height="24" viewBox="0 0 24 24" fill="none" xmlns="http://www.w3.org/2000/svg">
<g clip-path="url(#clip0_141_5238)">
<path d="M12.4001 0.000145809C11.2952 -0.00638345 10.2 0.206431 9.1779 0.626258C8.15581 1.04609 7.22721 1.66458 6.44589 2.44589C5.66458 3.22721 5.04609 4.15581 4.62626 5.1779C4.20643 6.19998 3.99362 7.29522 4.00015 8.40015C4.00015 14.6401 12.4001 24.0001 12.4001 24.0001C12.4001 24.0001 20.8001 14.6401 20.8001 8.40015C20.8067 7.29522 20.5939 6.19998 20.174 5.1779C19.7542 4.15581 19.1357 3.22721 18.3544 2.44589C17.5731 1.66458 16.6445 1.04609 15.6224 0.626258C14.6003 0.206431 13.5051 -0.00638345 12.4001 0.000145809ZM12.4001 11.4085C11.8068 11.4085 11.2268 11.2326 10.7334 10.903C10.2401 10.5733 9.85557 10.1048 9.62851 9.5566C9.40144 9.00842 9.34203 8.40522 9.45779 7.82327C9.57355 7.24133 9.85927 6.70678 10.2788 6.28723C10.6984 5.86767 11.2329 5.58195 11.8149 5.46619C12.3968 5.35043 13 5.40984 13.5482 5.63691C14.0964 5.86397 14.5649 6.24849 14.8946 6.74183C15.2242 7.23518 15.4001 7.8152 15.4001 8.40855C15.4035 8.80345 15.3282 9.19506 15.1786 9.56056C15.0291 9.92605 14.8082 10.2581 14.529 10.5374C14.2497 10.8166 13.9177 11.0375 13.5522 11.187C13.1867 11.3366 12.795 11.4119 12.4001 11.4085Z" fill="black"/>
</g>
<defs>
<clipPath id="clip0_141_5238">
<rect width="24" height="24" fill="white"/>
</clipPath>
</defs>
</svg>
