<svg width="24" height="24" viewBox="0 0 24 24" fill="none" xmlns="http://www.w3.org/2000/svg">
<path d="M3 24H21.0288V9H19.0236V7.0092C19.0236 5.15024 18.2851 3.36743 16.9707 2.05295C15.6562 0.738467 13.8734 0 12.0144 0C10.1554 0 8.37263 0.738467 7.05815 2.05295C5.74367 3.36743 5.0052 5.15024 5.0052 7.0092V9.0144H3V24ZM13.5144 19.4748C13.5233 19.5449 13.5166 19.6161 13.4948 19.6833C13.4731 19.7505 13.4367 19.8121 13.3884 19.8636C13.343 19.9177 13.2863 19.9612 13.2222 19.9908C13.1581 20.0205 13.0882 20.0356 13.0176 20.0352H11.0124C10.9418 20.0356 10.8719 20.0205 10.8078 19.9908C10.7437 19.9612 10.687 19.9177 10.6416 19.8636C10.5954 19.8107 10.5604 19.7489 10.5388 19.6821C10.5171 19.6153 10.5092 19.5448 10.5156 19.4748L10.8312 16.638C10.5764 16.4545 10.3689 16.2129 10.2259 15.9333C10.083 15.6537 10.0087 15.344 10.0092 15.03C10.0092 14.4982 10.2205 13.9882 10.5965 13.6121C10.9726 13.2361 11.4826 13.0248 12.0144 13.0248C12.5462 13.0248 13.0562 13.2361 13.4323 13.6121C13.8083 13.9882 14.0196 14.4982 14.0196 15.03C14.0212 15.3442 13.9474 15.6543 13.8043 15.9341C13.6613 16.2139 13.4532 16.4553 13.1976 16.638L13.5144 19.4748ZM16.0164 9.0144H8.0136V7.0092C8.03177 5.95996 8.46134 4.95984 9.20977 4.22426C9.9582 3.48868 10.9656 3.0765 12.015 3.0765C13.0644 3.0765 14.0718 3.48868 14.8202 4.22426C15.5687 4.95984 15.9982 5.95996 16.0164 7.0092V9.0144Z" fill="black"/>
</svg>
