<svg width="24" height="24" viewBox="0 0 24 24" fill="none" xmlns="http://www.w3.org/2000/svg">
<g clip-path="url(#clip0_141_5275)">
<path d="M19.0236 9.02434V7.00954C19.024 5.31047 18.4073 3.66909 17.2881 2.39072C16.1689 1.11235 14.6235 0.284027 12.9393 0.0598369C11.255 -0.164353 9.54674 0.230854 8.13211 1.17194C6.71748 2.11303 5.69284 3.53592 5.2488 5.17594H8.4552C8.86683 4.37896 9.53421 3.74332 10.3503 3.37097C11.1664 2.99863 12.0838 2.91116 12.9556 3.12259C13.8273 3.33402 14.6028 3.8321 15.1576 4.53694C15.7124 5.24178 16.0144 6.11253 16.0152 7.00954V9.02434H3V24.0003H21.0288V9.02434H19.0236ZM13.5144 19.4751C13.5233 19.5452 13.5166 19.6164 13.4948 19.6836C13.4731 19.7508 13.4367 19.8124 13.3884 19.8639C13.343 19.9181 13.2863 19.9615 13.2222 19.9912C13.1581 20.0208 13.0882 20.036 13.0176 20.0355H11.0124C10.9418 20.036 10.8719 20.0208 10.8078 19.9912C10.7437 19.9615 10.687 19.9181 10.6416 19.8639C10.5954 19.811 10.5604 19.7493 10.5388 19.6824C10.5171 19.6156 10.5092 19.5451 10.5156 19.4751L10.8312 16.6383C10.5764 16.4548 10.3689 16.2133 10.2259 15.9336C10.083 15.654 10.0087 15.3444 10.0092 15.0303C10.0092 14.4985 10.2205 13.9885 10.5965 13.6125C10.9726 13.2364 11.4826 13.0251 12.0144 13.0251C12.5462 13.0251 13.0562 13.2364 13.4323 13.6125C13.8083 13.9885 14.0196 14.4985 14.0196 15.0303C14.0212 15.3446 13.9474 15.6546 13.8043 15.9344C13.6613 16.2142 13.4532 16.4556 13.1976 16.6383L13.5144 19.4751Z" fill="black"/>
</g>
<defs>
<clipPath id="clip0_141_5275">
<rect width="24" height="24" fill="white"/>
</clipPath>
</defs>
</svg>
