<svg width="24" height="24" viewBox="0 0 24 24" fill="none" xmlns="http://www.w3.org/2000/svg">
<g clip-path="url(#clip0_141_5385)">
<path d="M16.3512 3.45595e-06H7.8876C7.38824 -0.0006348 6.90902 0.196879 6.55513 0.549195C6.20124 0.90151 6.00159 1.37984 6 1.8792V22.1208C5.99969 22.3677 6.04808 22.6122 6.1424 22.8403C6.23673 23.0685 6.37514 23.2757 6.5497 23.4503C6.72426 23.6249 6.93155 23.7633 7.15969 23.8576C7.38783 23.9519 7.63233 24.0003 7.8792 24H16.3524C16.5993 24.0003 16.8438 23.9519 17.0719 23.8576C17.3001 23.7633 17.5073 23.6249 17.6819 23.4503C17.8565 23.2757 17.9949 23.0685 18.0892 22.8403C18.1835 22.6122 18.2319 22.3677 18.2316 22.1208V1.8792C18.2319 1.63223 18.1835 1.38763 18.0891 1.15941C17.9947 0.931197 17.8562 0.723857 17.6815 0.549278C17.5068 0.3747 17.2994 0.236316 17.0711 0.14206C16.8428 0.0478043 16.5982 -0.000470475 16.3512 3.45595e-06ZM11.1912 1.9968H13.0452C13.1124 1.9968 13.1768 2.02348 13.2242 2.07096C13.2717 2.11845 13.2984 2.18285 13.2984 2.25C13.2984 2.31716 13.2717 2.38156 13.2242 2.42904C13.1768 2.47653 13.1124 2.5032 13.0452 2.5032H11.1936C11.1264 2.5032 11.062 2.47653 11.0146 2.42904C10.9671 2.38156 10.9404 2.31716 10.9404 2.25C10.9404 2.18285 10.9671 2.11845 11.0146 2.07096C11.062 2.02348 11.1264 1.9968 11.1936 1.9968H11.1912ZM10.1112 1.8972C10.1701 1.8972 10.2276 1.91466 10.2765 1.94736C10.3255 1.98006 10.3636 2.02654 10.3861 2.08092C10.4087 2.1353 10.4146 2.19513 10.4031 2.25286C10.3916 2.31059 10.3633 2.36362 10.3216 2.40524C10.28 2.44686 10.227 2.4752 10.1693 2.48669C10.1115 2.49817 10.0517 2.49227 9.99731 2.46975C9.94294 2.44723 9.89646 2.40908 9.86376 2.36014C9.83106 2.3112 9.8136 2.25366 9.8136 2.1948C9.81453 2.11637 9.84602 2.04139 9.90137 1.98582C9.95672 1.93024 10.0316 1.89845 10.11 1.8972H10.1112ZM12.12 22.9884C11.8876 22.9884 11.6605 22.9195 11.4673 22.7904C11.2741 22.6613 11.1235 22.4778 11.0346 22.2632C10.9457 22.0485 10.9224 21.8123 10.9678 21.5844C11.0131 21.3565 11.125 21.1472 11.2893 20.9829C11.4536 20.8186 11.6629 20.7067 11.8908 20.6614C12.1187 20.616 12.3549 20.6393 12.5696 20.7282C12.7842 20.8171 12.9677 20.9677 13.0968 21.1609C13.2259 21.3541 13.2948 21.5813 13.2948 21.8136C13.2951 21.968 13.2649 22.1209 13.206 22.2636C13.1471 22.4062 13.0606 22.5359 12.9514 22.645C12.8423 22.7542 12.7126 22.8407 12.57 22.8996C12.4273 22.9586 12.2744 22.9887 12.12 22.9884ZM17.2908 19.8H6.948V4.2H17.2908V19.8Z" fill="black"/>
</g>
<defs>
<clipPath id="clip0_141_5385">
<rect width="24" height="24" fill="white"/>
</clipPath>
</defs>
</svg>
