<svg width="24" height="24" viewBox="0 0 24 24" fill="none" xmlns="http://www.w3.org/2000/svg">
<g clip-path="url(#clip0_141_5222)">
<path d="M11.9968 0.00118786C9.6236 0.0308005 7.31251 0.763464 5.35574 2.10653C3.39897 3.4496 1.8844 5.34275 1.00356 7.54659C0.122719 9.75042 -0.0848365 12.166 0.40714 14.4878C0.899117 16.8096 2.06853 18.9333 3.7675 20.5905C5.46648 22.2477 7.6187 23.3639 9.95203 23.7979C12.2854 24.2319 14.695 23.9643 16.8762 23.0288C19.0574 22.0934 20.9123 20.5322 22.2062 18.5426C23.5001 16.553 24.175 14.2244 24.1456 11.8512C24.1007 8.67044 22.7968 5.63719 20.5196 3.41602C18.2424 1.19485 15.1776 -0.0331087 11.9968 0.00118786ZM5.63676 14.154C5.20986 14.154 4.79254 14.0275 4.43748 13.7905C4.08243 13.5534 3.80558 13.2165 3.64188 12.8222C3.47819 12.428 3.43499 11.994 3.51775 11.5752C3.60052 11.1564 3.80552 10.7715 4.10688 10.4692C4.40825 10.1668 4.79245 9.96053 5.21097 9.87637C5.62949 9.79222 6.06357 9.83397 6.45838 9.99635C6.85319 10.1587 7.19103 10.4345 7.42924 10.7887C7.66745 11.143 7.79534 11.5599 7.79676 11.9868C7.79771 12.2708 7.74262 12.5523 7.63464 12.815C7.52667 13.0778 7.36793 13.3166 7.16751 13.5179C6.9671 13.7193 6.72894 13.879 6.46669 13.9882C6.20443 14.0973 5.92322 14.1537 5.63916 14.154H5.63676ZM12.1576 14.154C11.7304 14.154 11.3127 14.0273 10.9575 13.79C10.6023 13.5526 10.3255 13.2153 10.162 12.8206C9.9985 12.4259 9.95572 11.9916 10.0391 11.5726C10.1224 11.1536 10.3281 10.7687 10.6302 10.4666C10.9323 10.1646 11.3172 9.95883 11.7362 9.87549C12.1552 9.79215 12.5895 9.83492 12.9842 9.99841C13.3788 10.1619 13.7162 10.4387 13.9535 10.794C14.1909 11.1492 14.3176 11.5668 14.3176 11.994C14.3185 12.2777 14.2634 12.5588 14.1553 12.8211C14.0472 13.0835 13.8884 13.3219 13.6879 13.5226C13.4874 13.7233 13.2492 13.8825 12.9869 13.9908C12.7247 14.0992 12.4437 14.1546 12.16 14.154H12.1576ZM18.6964 14.154C18.2692 14.154 17.8515 14.0273 17.4963 13.79C17.1411 13.5526 16.8643 13.2153 16.7008 12.8206C16.5373 12.4259 16.4945 11.9916 16.5779 11.5726C16.6612 11.1536 16.8669 10.7687 17.169 10.4666C17.4711 10.1646 17.856 9.95883 18.275 9.87549C18.694 9.79215 19.1283 9.83492 19.523 9.99841C19.9176 10.1619 20.255 10.4387 20.4923 10.794C20.7297 11.1492 20.8564 11.5668 20.8564 11.994C20.8573 12.2777 20.8022 12.5588 20.6941 12.8211C20.586 13.0835 20.4272 13.3219 20.2267 13.5226C20.0262 13.7233 19.788 13.8825 19.5257 13.9908C19.2635 14.0992 18.9825 14.1546 18.6988 14.154H18.6964Z" fill="black"/>
</g>
<defs>
<clipPath id="clip0_141_5222">
<rect width="24" height="24" fill="white"/>
</clipPath>
</defs>
</svg>
