<svg width="24" height="24" viewBox="0 0 24 24" fill="none" xmlns="http://www.w3.org/2000/svg">
<path d="M12.2072 24C12.8425 23.9981 13.4511 23.7444 13.8996 23.2945C14.3481 22.8446 14.6 22.2353 14.6 21.6H9.8C9.8019 22.2359 10.0554 22.8453 10.505 23.295C10.9547 23.7446 11.5641 23.9981 12.2 24H12.2072ZM20 16.8V10.2072C20.0074 8.45293 19.4172 6.74844 18.3266 5.37432C17.2361 4.00021 15.7101 3.03839 14 2.6472V1.8C14 1.32261 13.8104 0.864773 13.4728 0.527208C13.1352 0.189642 12.6774 0 12.2 0C11.7226 0 11.2648 0.189642 10.9272 0.527208C10.5896 0.864773 10.4 1.32261 10.4 1.8V2.6496C8.68926 3.03959 7.16257 4.00108 6.07179 5.37546C4.98101 6.74984 4.39132 8.455 4.4 10.2096V16.8L2 19.2V20.4H22.4V19.2L20 16.8Z" fill="black"/>
</svg>
