<svg width="24" height="24" viewBox="0 0 24 24" fill="none" xmlns="http://www.w3.org/2000/svg">
<path d="M10.572 5.23049C10.7682 4.66964 10.8974 4.08718 10.9569 3.49546V3.10708C11.1635 2.47655 11.1635 1.79569 10.9569 1.16515V0.967937L10.7603 0.776769C10.7609 0.801951 10.7565 0.827005 10.7473 0.850417C10.7381 0.873828 10.7242 0.895112 10.7066 0.91298C10.689 0.930849 10.668 0.944932 10.6449 0.954378C10.6217 0.963824 10.5969 0.968436 10.572 0.967937C10.1828 2.36208 10.1828 3.83756 10.572 5.2317V5.23049ZM4.80472 18.5892C4.46119 18.7388 4.13863 18.9332 3.84531 19.1676C2.80625 20.0123 1.95855 21.0718 1.35923 22.2747C2.50573 22.0762 3.66062 20.9111 4.80592 18.5892H4.80472ZM22.4687 15.6854C22.272 15.487 21.5021 14.9086 18.8157 14.9086H18.4392V15.0986C19.5826 15.6503 20.8184 15.9811 22.0825 16.0738H22.6558V15.8754C22.6558 15.8669 22.4675 15.8669 22.4675 15.6854H22.4687ZM23.2386 17.2305C22.6968 17.4923 22.1027 17.6251 21.5021 17.6189C19.508 17.5901 17.544 17.1249 15.7456 16.2553C13.1329 16.448 10.5545 16.9699 8.07031 17.8088C7.87364 17.8088 7.87364 17.8088 7.68535 18.0073C5.38396 22.0714 3.45914 23.9964 1.91929 23.9964C1.53433 23.9964 1.34604 23.9964 1.14936 23.8064L0.18995 23.2281V23.0296C0.0399727 22.736 -0.0232959 22.4051 0.00766202 22.0762C0.670714 20.3034 1.9764 18.8507 3.66062 18.0121C4.04558 17.8137 4.62003 17.4253 5.37917 17.0369C5.95241 16.069 6.53406 14.905 7.30398 13.5596C8.14332 11.7407 8.84957 9.86237 9.41709 7.9395C8.51328 5.92799 8.37622 3.65093 9.03212 1.54386C9.22041 0.776769 9.80205 0 10.572 0H10.9569C11.3664 0.0382116 11.7616 0.171113 12.1118 0.388385C13.455 1.7435 12.8818 4.8409 12.1118 7.35269V7.55112C12.7689 9.428 13.8128 11.143 15.1748 12.5832C15.7223 13.0129 16.2999 13.4023 16.9029 13.7483C17.8623 13.7483 18.631 13.5584 19.3914 13.5584C21.6928 13.5584 23.229 13.9383 23.8047 14.9135C23.9581 15.2813 24.0227 15.6807 23.9929 16.0786C23.7647 16.4785 23.5136 16.8647 23.241 17.2353L23.2386 17.2305ZM10.7603 9.67937C10.2153 11.265 9.5745 12.8154 8.84144 14.3218C8.45648 15.0986 8.07151 15.6854 7.68655 16.4622H8.07151C10.1084 15.6403 12.2311 15.0538 14.3988 14.7139C14.111 14.5714 13.8526 14.3751 13.6373 14.1355C12.4837 12.7877 11.5159 11.2887 10.7603 9.67937Z" fill="black"/>
</svg>
