<svg width="24" height="24" viewBox="0 0 24 24" fill="none" xmlns="http://www.w3.org/2000/svg">
<path d="M5.63643 9.58705C6.16552 9.58776 6.68293 9.43147 7.12316 9.13797C7.56338 8.84446 7.90662 8.42694 8.10943 7.93826C8.31223 7.44957 8.36548 6.9117 8.26243 6.39274C8.15939 5.87378 7.90467 5.39706 7.53055 5.02293C7.15642 4.64881 6.6797 4.3941 6.16074 4.29105C5.64178 4.188 5.10391 4.24125 4.61522 4.44406C4.12654 4.64686 3.70902 4.9901 3.41551 5.43032C3.12201 5.87055 2.96572 6.38796 2.96643 6.91705C2.96928 7.6243 3.25149 8.30177 3.7516 8.80188C4.25171 9.30199 4.92918 9.5842 5.63643 9.58705Z" fill="black"/>
<path d="M0 1V22.96H24V1H0ZM1.56 17.2V2.56H22.44V12.232L17.6028 7.2484C17.5077 7.16404 17.3829 7.12089 17.256 7.1284C17.1301 7.13731 17.0122 7.19346 16.926 7.2856L12.9096 11.68L14.736 13.504C14.8258 13.594 14.8762 13.7159 14.8762 13.843C14.8762 13.9701 14.8258 14.092 14.736 14.182C14.646 14.2718 14.5241 14.3222 14.397 14.3222C14.2699 14.3222 14.148 14.2718 14.058 14.182L12.2232 12.43L9.9432 10.15C9.85823 10.0632 9.74348 10.0118 9.62211 10.0062C9.50074 10.0006 9.38177 10.0413 9.2892 10.12L1.56 17.2Z" fill="black"/>
</svg>
