<svg width="24" height="24" viewBox="0 0 24 24" fill="none" xmlns="http://www.w3.org/2000/svg">
<path d="M8.68344 10.1651C9.12465 10.1644 9.55574 10.0329 9.92219 9.78715C10.2886 9.54143 10.574 9.19257 10.7422 8.78467C10.9104 8.37677 10.9538 7.92816 10.8671 7.49557C10.7803 7.06298 10.5672 6.66583 10.2547 6.35435C9.94222 6.04287 9.54438 5.83105 9.11151 5.74567C8.67864 5.66029 8.23018 5.7052 7.82282 5.8747C7.41547 6.0442 7.06753 6.33069 6.82299 6.69793C6.57846 7.06518 6.44833 7.4967 6.44904 7.93791C6.45158 8.52906 6.68803 9.09517 7.10672 9.51251C7.5254 9.92985 8.09228 10.1645 8.68344 10.1651Z" fill="black"/>
<path d="M3.972 3V4.3032H0V19.6632H3.972V21.3252H24V3H3.972ZM1.0692 15.6348V5.3928H3.9792V15.6336L1.0692 15.6348ZM22.704 12.372L18.6684 8.214C18.6295 8.17835 18.5839 8.15086 18.5342 8.13313C18.4846 8.11541 18.4319 8.10781 18.3792 8.1108C18.274 8.11799 18.1754 8.16471 18.1032 8.2416L14.7516 11.91L16.2756 13.434C16.3132 13.4709 16.343 13.5148 16.3633 13.5634C16.3837 13.6119 16.3942 13.664 16.3942 13.7166C16.3942 13.7692 16.3837 13.8213 16.3633 13.8698C16.343 13.9184 16.3132 13.9623 16.2756 13.9992C16.2385 14.0363 16.1944 14.0658 16.1459 14.0859C16.0975 14.1059 16.0455 14.1163 15.993 14.1163C15.9405 14.1163 15.8885 14.1059 15.8401 14.0859C15.7916 14.0658 15.7475 14.0363 15.7104 13.9992L14.1792 12.5376L12.276 10.6344C12.2051 10.5619 12.109 10.5193 12.0077 10.5155C11.9063 10.5117 11.8073 10.547 11.7312 10.614L5.28 16.5168V4.3032H22.6968V12.372H22.704Z" fill="black"/>
</svg>
