<svg width="24" height="24" viewBox="0 0 24 24" fill="none" xmlns="http://www.w3.org/2000/svg">
<g clip-path="url(#clip0_141_5407)">
<path d="M11.934 0C9.1872 0.00288958 6.52502 0.950609 4.3943 2.68408C2.26359 4.41754 0.794054 6.83123 0.232376 9.51998C-0.329301 12.2087 0.0510703 15.0089 1.30964 17.4503C2.56821 19.8918 4.62837 21.826 7.14429 22.9283C7.10053 22.0054 7.16888 21.0806 7.34785 20.1742C7.57776 19.2055 8.87816 13.6447 8.87816 13.6447C8.61877 13.0497 8.48857 12.4065 8.49618 11.7575C8.49618 9.97216 9.51639 8.67176 10.7916 8.67176C11.0195 8.66723 11.2456 8.7118 11.4547 8.80243C11.6638 8.89306 11.8509 9.02764 12.0033 9.19701C12.1558 9.36639 12.27 9.56659 12.3382 9.78402C12.4064 10.0015 12.427 10.231 12.3986 10.4571C12.1683 11.9037 11.817 13.3285 11.3484 14.7164C11.2764 14.9968 11.2715 15.2903 11.3342 15.5729C11.3969 15.8556 11.5254 16.1195 11.7093 16.3431C11.8932 16.5668 12.1272 16.7439 12.3924 16.8601C12.6576 16.9763 12.9465 17.0283 13.2356 17.0118C15.5311 17.0118 17.0614 14.1045 17.0614 10.6655C17.0614 8.03832 15.3012 6.07454 12.0885 6.07454C11.3202 6.04494 10.554 6.17186 9.83633 6.44757C9.11867 6.72329 8.46456 7.14205 7.91376 7.6784C7.36295 8.21476 6.92696 8.85751 6.63227 9.56759C6.33758 10.2777 6.19035 11.0403 6.19952 11.809C6.16027 12.6626 6.44223 13.5 6.98982 14.156C7.08813 14.2317 7.15884 14.3377 7.19108 14.4575C7.22331 14.5774 7.21529 14.7045 7.16824 14.8193C7.11675 15.0492 6.98982 15.5593 6.91319 15.7881C6.90318 15.8516 6.87841 15.912 6.84087 15.9643C6.80333 16.0165 6.75407 16.0593 6.69702 16.0891C6.63998 16.1189 6.57674 16.1349 6.51239 16.1359C6.44803 16.1368 6.38435 16.1227 6.32645 16.0946C4.64287 15.4049 3.87532 13.568 3.87532 11.5276C3.87532 8.13531 6.73237 4.05448 12.4189 4.05448C16.9847 4.05448 19.9939 7.37015 19.9939 10.9157C19.9939 15.6084 17.3919 19.1277 13.5409 19.1277C12.9679 19.1435 12.3999 19.0166 11.888 18.7585C11.3761 18.5003 10.9364 18.119 10.6084 17.6489C10.6084 17.6489 9.91992 20.4029 9.77024 20.9394C9.49099 21.8487 9.08808 22.7154 8.57282 23.515C9.67594 23.8311 10.8176 23.9922 11.9651 23.994C15.1054 23.9273 18.0944 22.632 20.2903 20.386C22.4861 18.1401 23.7138 15.1228 23.7097 11.9817C23.7057 8.84074 22.4701 5.82655 20.2685 3.58635C18.0668 1.34615 15.0745 0.058544 11.934 0V0Z" fill="black"/>
</g>
<defs>
<clipPath id="clip0_141_5407">
<rect width="24" height="24" fill="white"/>
</clipPath>
</defs>
</svg>
