<svg width="24" height="24" viewBox="0 0 24 24" fill="none" xmlns="http://www.w3.org/2000/svg">
<g clip-path="url(#clip0_141_5368)">
<path d="M23.01 4.62279H20.0712V1.9828C20.0715 1.85365 20.0463 1.72571 19.997 1.60633C19.9477 1.48694 19.8754 1.37848 19.784 1.28715C19.6927 1.19583 19.5842 1.12345 19.4649 1.07417C19.3455 1.02489 19.2175 0.999686 19.0884 1H4.89482C4.76567 0.999686 4.63773 1.02489 4.51835 1.07417C4.39897 1.12345 4.2905 1.19583 4.19918 1.28715C4.10785 1.37848 4.03547 1.48694 3.98619 1.60633C3.93692 1.72571 3.91171 1.85365 3.91203 1.9828V4.62279H0.974434C0.845764 4.62279 0.718368 4.64827 0.599598 4.69776C0.480827 4.74725 0.373036 4.81978 0.282444 4.91115C0.191852 5.00253 0.120254 5.11094 0.0717829 5.23013C0.0233117 5.34932 -0.00107301 5.47693 3.62105e-05 5.60559V15.2056C-0.000280339 15.3347 0.0249244 15.4627 0.0742025 15.582C0.123481 15.7014 0.195861 15.8099 0.287185 15.9012C0.378509 15.9925 0.486978 16.0649 0.606359 16.1142C0.725741 16.1635 0.853682 16.1887 0.982834 16.1884H3.92043V21.3484C3.90671 21.4972 3.92873 21.6471 3.98467 21.7857C4.04061 21.9243 4.12884 22.0475 4.24203 22.1452C4.35453 22.2479 4.48986 22.3223 4.63683 22.3624C4.77662 22.3959 4.92042 22.4096 5.06402 22.4032H18.9444C19.088 22.4096 19.2318 22.3959 19.3716 22.3624C19.5194 22.3244 19.6552 22.2496 19.7664 22.1452C19.8768 22.0439 19.9626 21.9187 20.0171 21.7791C20.0716 21.6395 20.0934 21.4893 20.0808 21.34V16.18H23.0196C23.1488 16.18 23.2768 16.1544 23.3962 16.1048C23.5155 16.0551 23.6238 15.9824 23.715 15.8907C23.8061 15.799 23.8782 15.6902 23.9271 15.5706C23.976 15.451 24.0008 15.3228 24 15.1936V5.59359C23.9946 5.33447 23.888 5.08774 23.703 4.90628C23.5179 4.72482 23.2692 4.62305 23.01 4.62279ZM2.44803 8.07999C2.27964 8.07998 2.11502 8.03014 1.9749 7.93676C1.83478 7.84338 1.72543 7.71062 1.66061 7.5552C1.5958 7.39979 1.57842 7.22867 1.61066 7.0634C1.64291 6.89813 1.72334 6.7461 1.84182 6.62645C1.9603 6.5068 2.11154 6.42488 2.27649 6.39102C2.44144 6.35716 2.61272 6.37286 2.76876 6.43615C2.9248 6.49944 3.05862 6.60749 3.15337 6.74669C3.24813 6.88589 3.29957 7.05001 3.30123 7.21839C3.30218 7.33109 3.28082 7.44287 3.23838 7.54729C3.19595 7.6517 3.13327 7.74669 3.05396 7.82677C2.97466 7.90686 2.88029 7.97046 2.7763 8.01392C2.6723 8.05738 2.56074 8.07983 2.44803 8.07999ZM18.9318 21.4168H5V13.6804H18.9318V21.418V21.4168ZM19 4.61679H5V2.956C4.99984 2.82674 5.02524 2.69874 5.07474 2.57934C5.12424 2.45994 5.19686 2.3515 5.28842 2.26027C5.37998 2.16904 5.48868 2.09682 5.60826 2.04776C5.72784 1.9987 5.85595 1.97377 5.9852 1.9744H18.0232C18.1524 1.97408 18.2803 1.99929 18.3997 2.04857C18.5191 2.09785 18.6275 2.17023 18.7189 2.26155C18.8102 2.35287 18.8826 2.46134 18.9318 2.58072C18.9811 2.70011 19.0063 2.82805 19.006 2.9572L19 4.61679Z" fill="black"/>
</g>
<defs>
<clipPath id="clip0_141_5368">
<rect width="24" height="24" fill="white"/>
</clipPath>
</defs>
</svg>
