<svg width="24" height="24" viewBox="0 0 24 24" fill="none" xmlns="http://www.w3.org/2000/svg">
<g clip-path="url(#clip0_141_5207)">
<path d="M11.8381 0.00109356C9.46494 0.0331135 7.15456 0.768143 5.19914 2.11323C3.24371 3.45832 1.73106 5.35306 0.852485 7.55784C-0.0260954 9.76262 -0.23115 12.1784 0.263253 14.4997C0.757655 16.8211 1.92931 18.9436 3.63005 20.5991C5.33079 22.2545 7.48423 23.3684 9.81805 23.8C12.1519 24.2315 14.5612 23.9613 16.7415 23.0235C18.9218 22.0857 20.775 20.5225 22.0668 18.5315C23.3586 16.5404 24.031 14.2111 23.9989 11.8379C23.9559 8.65562 22.6505 5.62076 20.37 3.40094C18.0894 1.18112 15.0204 -0.0418432 11.8381 0.00109356ZM11.8021 19.3043H11.7385C11.5063 19.3084 11.2757 19.2644 11.0614 19.1749C10.8471 19.0854 10.6536 18.9525 10.4933 18.7844C10.3329 18.6164 10.2091 18.417 10.1298 18.1987C10.0504 17.9804 10.0171 17.7481 10.0321 17.5163C10.0324 17.2884 10.0782 17.0629 10.1669 16.853C10.2556 16.6431 10.3854 16.453 10.5486 16.294C10.7119 16.135 10.9053 16.0103 11.1175 15.9271C11.3296 15.844 11.5563 15.8041 11.7841 15.8099H11.8477C12.0772 15.8129 12.3038 15.861 12.5146 15.9516C12.7254 16.0422 12.9164 16.1734 13.0765 16.3378C13.2366 16.5021 13.3628 16.6964 13.4478 16.9095C13.5329 17.1227 13.5751 17.3504 13.5721 17.5799C13.5691 17.8093 13.521 18.0359 13.4304 18.2468C13.3398 18.4576 13.2086 18.6485 13.0442 18.8087C12.8799 18.9688 12.6856 19.095 12.4725 19.18C12.2593 19.2651 12.0316 19.3073 11.8021 19.3043ZM16.0909 10.7843C15.6658 11.2695 15.1821 11.7 14.6509 12.0659L13.9201 12.5711C13.5922 12.7889 13.3375 13.1004 13.1893 13.4651C13.0985 13.7039 13.0577 13.9587 13.0693 14.2139V14.3339H10.2757L10.2853 14.0939C10.3213 13.1183 10.3393 12.5495 10.7461 12.0803C11.3749 11.4426 12.0747 10.8789 12.8317 10.4003C13.0215 10.2576 13.189 10.0873 13.3285 9.89509C13.5762 9.60268 13.725 9.23929 13.7533 8.85709C13.7566 8.42972 13.6238 8.01238 13.3741 7.66549C13.2023 7.47414 12.9871 7.32685 12.7465 7.23601C12.506 7.14517 12.2471 7.11344 11.9917 7.14349C11.7214 7.11432 11.4482 7.15947 11.2016 7.27408C10.9551 7.38869 10.7445 7.56842 10.5925 7.79389C10.3194 8.20977 10.1719 8.69556 10.1677 9.19309V9.31309H7.28771L7.29731 9.18709C7.26552 8.45189 7.42014 7.72059 7.74681 7.06118C8.07347 6.40177 8.56156 5.83566 9.16571 5.41549C9.98003 4.91897 10.9207 4.6689 11.8741 4.69549C13.1169 4.65199 14.3411 5.0064 15.3685 5.70709C15.8373 6.05186 16.2125 6.50831 16.46 7.03496C16.7075 7.56161 16.8195 8.14176 16.7857 8.72269C16.7835 9.46549 16.5415 10.1877 16.0957 10.7819L16.0909 10.7843Z" fill="black"/>
</g>
<defs>
<clipPath id="clip0_141_5207">
<rect width="24" height="24" fill="white"/>
</clipPath>
</defs>
</svg>
