<svg width="24" height="24" viewBox="0 0 24 24" fill="none" xmlns="http://www.w3.org/2000/svg">
<g clip-path="url(#clip0_141_5444)">
<path d="M17.0744 7.41219C17.9799 8.2877 18.6175 9.40293 18.9125 10.6275C19.2076 11.852 19.1479 13.1352 18.7405 14.3271C18.333 15.5189 17.5947 16.5702 16.6117 17.3578C15.6288 18.1455 14.442 18.637 13.19 18.775L13.1804 18.0346L13.1528 16.075L8.36719 20.1166L13.2632 24.001L13.2176 21.445C14.998 21.2963 16.6979 20.6382 18.1142 19.5492C19.5306 18.4602 20.6034 16.9865 21.2045 15.3041C21.8057 13.6216 21.9097 11.8017 21.5041 10.0618C21.0986 8.32182 20.2006 6.73543 18.9176 5.49219" fill="black"/>
<path d="M7.68023 16.584C6.77468 15.7085 6.13711 14.5933 5.84207 13.3687C5.54703 12.1442 5.60672 10.861 6.01416 9.6691C6.4216 8.47725 7.15995 7.42602 8.14286 6.63835C9.12578 5.85069 10.3126 5.35914 11.5646 5.2212L11.5742 5.9616L11.6006 7.92L16.3694 3.882L11.4746 0L11.5202 2.556C9.74124 2.70526 8.04284 3.36354 6.62794 4.45217C5.21303 5.54081 4.14146 7.01378 3.54124 8.69509C2.94103 10.3764 2.83755 12.195 3.24317 13.9335C3.64878 15.6721 4.54635 17.2571 5.82863 18.4992" fill="black"/>
</g>
<defs>
<clipPath id="clip0_141_5444">
<rect width="24" height="24" fill="white"/>
</clipPath>
</defs>
</svg>
