<svg width="24" height="24" viewBox="0 0 24 24" fill="none" xmlns="http://www.w3.org/2000/svg">
<g clip-path="url(#clip0_141_5469)">
<path d="M9.96435 7.65017V0.00830078C8.12612 0.307029 6.38595 1.04731 4.89044 2.16677C3.37029 3.29015 2.13456 4.76008 1.2839 6.45684C0.433252 8.15359 -0.00825591 10.0292 -0.00465257 11.9308C-0.0361571 14.7931 0.96931 17.5684 2.82272 19.735C4.97502 18.6694 6.76951 16.9887 7.98303 14.902C9.30433 12.7199 9.98976 10.2062 9.96075 7.64896L9.96435 7.65017Z" fill="black"/>
<path d="M22.6916 6.41365C21.8427 4.73116 20.6136 3.27389 19.1034 2.15969C17.6056 1.04327 15.8659 0.302945 14.0283 0V7.65035C14.0028 10.2056 14.688 12.7168 16.006 14.8986C17.2193 16.9855 19.0138 18.6662 21.1663 19.7315C23.0197 17.5649 24.0252 14.7896 23.9937 11.9273C24.0022 10.0114 23.554 8.12157 22.6868 6.41728L22.6916 6.41365Z" fill="black"/>
<path d="M14.0162 19.1936C13.0264 17.9558 12.3203 16.5121 11.9485 14.9663C11.5801 16.5115 10.8773 17.9552 9.89035 19.1936C8.86039 20.5045 7.61648 21.6285 6.21213 22.5173C7.97398 23.4893 9.94962 23.9987 11.9575 23.9987C13.9653 23.9987 15.941 23.4893 17.7028 22.5173C16.2902 21.6365 15.0422 20.5114 14.0162 19.1936Z" fill="black"/>
</g>
<defs>
<clipPath id="clip0_141_5469">
<rect width="24" height="24" fill="white"/>
</clipPath>
</defs>
</svg>
