<svg width="24" height="24" viewBox="0 0 24 24" fill="none" xmlns="http://www.w3.org/2000/svg">
<g clip-path="url(#clip0_141_5241)">
<path d="M7.44497 1.18332C5.53251 2.27466 4.09787 4.04239 3.42349 6.13852C2.74911 8.23465 2.88386 10.5073 3.80121 12.509C4.71855 14.5108 6.35203 16.0966 8.38006 16.9543C10.4081 17.812 12.6837 17.8794 14.759 17.1433L18.7226 24.0001L21.5486 22.3657L17.5886 15.5029C19.26 14.0748 20.3372 12.0734 20.6084 9.89172C20.8797 7.71005 20.3255 5.50578 19.0547 3.71181C17.7839 1.91784 15.8883 0.663798 13.7402 0.19596C11.5921 -0.271877 9.34671 0.0802984 7.44497 1.18332ZM16.6634 6.04092C17.1503 6.88357 17.4068 7.83956 17.407 8.81277C17.4072 9.78598 17.1512 10.7421 16.6647 11.585C16.1782 12.4279 15.4784 13.1278 14.6355 13.6144C13.7927 14.101 12.8366 14.3571 11.8634 14.3569C10.8891 14.3545 9.93231 14.0975 9.088 13.6112C8.2437 13.125 7.5412 12.4265 7.05017 11.5849C6.56325 10.7423 6.30678 9.78628 6.30654 8.81307C6.3063 7.83986 6.56231 6.88374 7.04882 6.04086C7.53533 5.19798 8.2352 4.49805 9.07803 4.01146C9.92087 3.52487 10.877 3.26878 11.8502 3.26892C12.8253 3.26743 13.7835 3.52286 14.6285 4.00949C15.4735 4.49612 16.1753 5.19678 16.6634 6.04092Z" fill="black"/>
</g>
<defs>
<clipPath id="clip0_141_5241">
<rect width="24" height="24" fill="white"/>
</clipPath>
</defs>
</svg>
