<svg width="24" height="24" viewBox="0 0 24 24" fill="none" xmlns="http://www.w3.org/2000/svg">
<g clip-path="url(#clip0_141_5230)">
<path d="M20.6775 13.1519C20.6775 12.7919 20.8035 12.4319 20.8035 11.9411C20.8302 11.5333 20.7876 11.1239 20.6775 10.7303L23.2071 8.68072C23.3093 8.59464 23.378 8.4753 23.401 8.34364C23.4241 8.21198 23.4 8.07641 23.3331 7.96072L20.9211 3.74272C20.8256 3.65508 20.7067 3.59707 20.5789 3.57576C20.4511 3.55446 20.3198 3.57077 20.2011 3.62272L17.1819 4.83232C16.5409 4.36048 15.8538 3.9548 15.1311 3.62152L14.6511 0.482324C14.7771 0.122324 14.4111 -0.117676 14.1711 -0.117676H9.35068C9.11068 -0.117676 8.75068 0.122324 8.75068 0.362324L8.27068 3.62272C7.53875 3.93405 6.85119 4.34077 6.22588 4.83232L3.30868 3.62152C3.16151 3.56553 3.00018 3.55865 2.84879 3.6019C2.69739 3.64516 2.56405 3.73624 2.46868 3.86152L0.0470766 8.08432C-0.0729234 8.20432 0.0470766 8.57152 0.287077 8.80432L2.81668 10.7243C2.81668 11.0843 2.69668 11.4443 2.69668 11.9351C2.67276 12.3425 2.71326 12.7511 2.81668 13.1459L0.290677 15.2015C0.187112 15.2868 0.11791 15.4067 0.0958532 15.5391C0.0737961 15.6714 0.100373 15.8072 0.170677 15.9215L2.58268 20.1395C2.67844 20.2266 2.7973 20.2843 2.925 20.3056C3.0527 20.3269 3.18383 20.3109 3.30268 20.2595L6.31948 19.0595C6.96199 19.5312 7.65072 19.9365 8.37508 20.2691L8.85508 23.4119C8.87255 23.5545 8.94512 23.6845 9.05726 23.7742C9.16939 23.8639 9.31218 23.9062 9.45508 23.8919H14.2911C14.5311 23.8919 14.8911 23.6519 14.8911 23.4119L15.3711 20.2691C16.0956 19.9393 16.7831 19.5334 17.4219 19.0583L20.4387 20.2691C20.5672 20.3248 20.7117 20.331 20.8446 20.2868C20.9774 20.2425 21.0893 20.1507 21.1587 20.0291L23.5707 15.8111C23.6907 15.5711 23.6907 15.2111 23.4447 15.0911L20.6775 13.1519ZM11.7543 16.1687C10.9177 16.1709 10.0993 15.9247 9.40261 15.4615C8.70597 14.9983 8.16243 14.3388 7.84079 13.5665C7.51916 12.7942 7.4339 11.9438 7.5958 11.123C7.7577 10.3022 8.15948 9.54792 8.75029 8.9556C9.3411 8.36328 10.0944 7.95956 10.9147 7.79556C11.7351 7.63156 12.5857 7.71465 13.3588 8.03431C14.1319 8.35397 14.7928 8.89582 15.2578 9.59128C15.7229 10.2867 15.9711 11.1045 15.9711 11.9411C15.9574 13.0565 15.509 14.1224 14.7211 14.912C13.9333 15.7016 12.8684 16.1525 11.7531 16.1687H11.7543Z" fill="black"/>
</g>
<defs>
<clipPath id="clip0_141_5230">
<rect width="24" height="24" fill="white"/>
</clipPath>
</defs>
</svg>
