<svg width="24" height="24" viewBox="0 0 24 24" fill="none" xmlns="http://www.w3.org/2000/svg">
<g clip-path="url(#clip0_141_5322)">
<path d="M19.3279 15.8704C18.7928 15.8689 18.2626 15.9736 17.7682 16.1786C17.2738 16.3836 16.8251 16.6846 16.4479 17.0644C16.2385 17.275 16.0533 17.5085 15.8959 17.7604L8.86515 13.492C9.0585 13.0151 9.15792 12.5054 9.15795 11.9908C9.15634 11.4767 9.05824 10.9675 8.86875 10.4896L15.9127 6.24878C16.4383 7.07583 17.2447 7.68544 18.1837 7.96561C19.1227 8.24578 20.1313 8.17769 21.0241 7.77385C21.917 7.37001 22.6341 6.65754 23.0437 5.76735C23.4534 4.87716 23.528 3.86904 23.254 2.92823C22.9799 1.98741 22.3755 1.17709 21.5519 0.646146C20.7283 0.115203 19.7408 -0.100697 18.7707 0.0381135C17.8007 0.176924 16.9133 0.661121 16.2717 1.40174C15.63 2.14236 15.2772 3.08966 15.2779 4.06958C15.2771 4.56574 15.3687 5.05773 15.5479 5.52038L8.47635 9.74918C7.99704 9.01514 7.29349 8.45553 6.47043 8.15365C5.64738 7.85176 4.74885 7.82376 3.90859 8.0738C3.06834 8.32384 2.3313 8.83856 1.80721 9.54132C1.28312 10.2441 1 11.0973 1 11.974C1 12.8506 1.28312 13.7039 1.80721 14.4066C2.3313 15.1094 3.06834 15.6241 3.90859 15.8742C4.74885 16.1242 5.64738 16.0962 6.47043 15.7943C7.29349 15.4924 7.99704 14.9328 8.47635 14.1988L15.5179 18.4804C15.3412 18.9455 15.2494 19.4385 15.2467 19.936C15.2468 20.6053 15.412 21.2642 15.7276 21.8544C16.0432 22.4446 16.4996 22.9478 17.0562 23.3195C17.6128 23.6912 18.2524 23.9199 18.9185 23.9852C19.5846 24.0506 20.2566 23.9507 20.8748 23.6943C21.493 23.4379 22.0385 23.0329 22.4628 22.5154C22.8871 21.9978 23.1772 21.3835 23.3074 20.727C23.4376 20.0705 23.4039 19.392 23.2091 18.7517C23.0144 18.1113 22.6648 17.5289 22.1911 17.056C21.8168 16.6778 21.3707 16.3781 20.8791 16.1745C20.3874 15.9709 19.8601 15.8675 19.3279 15.8704Z" fill="black"/>
</g>
<defs>
<clipPath id="clip0_141_5322">
<rect width="24" height="24" fill="white"/>
</clipPath>
</defs>
</svg>
