<svg width="24" height="24" viewBox="0 0 24 24" fill="none" xmlns="http://www.w3.org/2000/svg">
<g clip-path="url(#clip0_141_5314)">
<path d="M15.3256 7.1904C14.7971 7.22457 14.2901 7.41256 13.867 7.73122C13.4439 8.04988 13.1233 8.48529 12.9445 8.98386C12.7658 9.48244 12.7367 10.0224 12.861 10.5373C12.9852 11.0521 13.2573 11.5194 13.6437 11.8817C14.0301 12.2439 14.5141 12.4852 15.0359 12.5758C15.5577 12.6665 16.0947 12.6026 16.5806 12.392C17.0666 12.1814 17.4804 11.8333 17.771 11.3905C18.0617 10.9478 18.2165 10.4297 18.2164 9.90001C18.1819 9.161 17.8606 8.46457 17.3208 7.95863C16.7811 7.45269 16.0653 7.1771 15.3256 7.1904ZM15.1444 8.16601C13.3012 8.16601 12.7864 10.5504 12.7864 10.5504C12.7112 10.1905 12.7146 9.81865 12.7964 9.46021C12.8782 9.10178 13.0365 8.76523 13.2604 8.47363C13.4843 8.18203 13.7686 7.94224 14.0938 7.77068C14.4189 7.59912 14.7773 7.49983 15.1444 7.47961H15.352C16.2376 7.47001 16.2652 8.16601 15.1444 8.16601Z" fill="black"/>
<path d="M2.52626 13.2324V3.378C2.52626 1.7436 2.93306 1.2288 4.44626 1.2288H19.3359C20.7447 1.2288 21.2559 1.8432 21.2559 3.378V12.5376L22.4115 11.7432V2.3304C22.4313 1.73667 22.2163 1.15904 21.8131 0.722785C21.4099 0.286531 20.8509 0.0268284 20.2575 0H3.39266C2.80005 0.0280523 2.24231 0.288288 1.8401 0.724407C1.43789 1.16053 1.22356 1.73746 1.24346 2.3304V12.438L2.52626 13.2324Z" fill="black"/>
<path d="M8.58725 7.19046C8.0587 7.22463 7.55169 7.41262 7.12863 7.73128C6.70557 8.04994 6.38492 8.48535 6.20618 8.98392C6.02743 9.48249 5.99838 10.0225 6.1226 10.5373C6.24683 11.0522 6.5189 11.5195 6.90533 11.8817C7.29176 12.2439 7.77569 12.4852 8.29751 12.5759C8.81934 12.6666 9.35629 12.6027 9.84226 12.3921C10.3282 12.1815 10.742 11.8334 11.0327 11.3906C11.3233 10.9478 11.4781 10.4297 11.4781 9.90006C11.4663 9.5323 11.3821 9.17046 11.2305 8.83522C11.0788 8.49999 10.8625 8.19792 10.5941 7.94629C10.3256 7.69466 10.0102 7.49839 9.66587 7.3687C9.32153 7.23901 8.955 7.17845 8.58725 7.19046ZM6.08525 10.5685C6.01002 10.2086 6.01343 9.83671 6.09524 9.47827C6.17704 9.11983 6.33532 8.78329 6.55923 8.49169C6.78315 8.20009 7.06741 7.9603 7.39258 7.78874C7.71776 7.61717 8.07615 7.51789 8.44325 7.49766H8.65085C9.57245 7.49766 9.62645 8.19366 8.46965 8.19366C6.59045 8.16606 6.08525 10.5685 6.08525 10.5685Z" fill="black"/>
<path d="M15.6509 14.5884C15.6509 14.616 15.6233 14.616 15.6509 14.5884V14.5884Z" fill="black"/>
<path d="M22.6411 11.4169C20.0474 13.2769 16.848 14.091 13.6807 13.6969C12.5791 13.6429 12.1723 14.1037 12.0907 14.8537C11.8022 14.6534 11.5305 14.4298 11.2783 14.1853L11.1523 14.0593C10.9762 13.9119 10.7708 13.8035 10.5496 13.7415C10.3285 13.6794 10.0966 13.665 9.86952 13.6993C6.70412 14.0649 3.51483 13.2534 0.909125 11.4193C0.195125 10.9045 -0.265675 11.6005 0.168725 12.2317C1.52745 13.7617 3.24366 14.9317 5.16433 15.6373C2.52433 24.6157 11.5867 26.0521 11.4607 21.4453V16.9105C11.7223 16.9645 12.1291 17.0641 12.1291 17.0641C12.8849 17.2647 13.6812 17.2552 14.4319 17.0365C15.0324 16.9057 15.5839 16.6084 16.0233 16.1786C16.4626 15.7489 16.772 15.204 16.9159 14.6065C16.9193 14.6592 16.9098 14.7119 16.8883 14.7601C15.9667 18.4453 12.1015 17.7505 12.1015 17.7505V21.4093C11.9755 26.0161 21.0343 24.5797 18.3979 15.6013C20.302 14.8922 22.0064 13.7332 23.3659 12.2233C23.8159 11.5885 23.3551 10.9297 22.6411 11.4169ZM5.33473 20.5789C4.96758 18.9787 5.02049 17.3107 5.48833 15.7369L6.04873 15.9445C5.91408 16.2769 5.80223 16.6181 5.71393 16.9657C5.15098 18.7684 5.32619 20.7209 6.20113 22.3945C5.82047 21.8376 5.52821 21.2252 5.33473 20.5789ZM15.6547 14.5897C15.2755 14.6173 14.9143 14.6437 14.5747 14.6437C13.8945 14.6557 13.2152 14.586 12.5515 14.4361C12.6416 14.2842 12.7744 14.162 12.9333 14.085C13.0923 14.008 13.2704 13.9794 13.4455 14.0029H13.5451C14.1319 14.0569 14.6743 14.0845 15.2071 14.0845C15.5419 14.0845 15.8479 14.0845 16.1287 14.0569L15.6547 14.5897ZM16.5043 14.5621C15.9231 15.3016 15.0779 15.7872 14.1463 15.9169C13.81 15.9172 13.4807 15.8201 13.1983 15.6373C13.4512 15.7376 13.7207 15.7897 13.9927 15.7909C14.6611 15.7909 15.4015 15.4117 16.2415 14.2549C16.2532 14.2312 16.2711 14.2111 16.2933 14.1968C16.3155 14.1824 16.3411 14.1743 16.3675 14.1733C16.4041 14.1871 16.4373 14.2089 16.4645 14.237C16.4917 14.2651 16.5124 14.2989 16.525 14.336C16.5376 14.373 16.5419 14.4124 16.5375 14.4513C16.5331 14.4902 16.5201 14.5276 16.4995 14.5609L16.5043 14.5621ZM16.9375 14.2369C16.9099 14.1109 16.8379 14.0557 16.8115 14.0557C19.0508 13.771 21.1821 12.9262 23.0083 11.5993C21.2462 13.0193 19.1721 14.0006 16.9567 14.4625C16.9658 14.3861 16.9576 14.3086 16.9327 14.2357L16.9375 14.2369Z" fill="black"/>
</g>
<defs>
<clipPath id="clip0_141_5314">
<rect width="24" height="24" fill="white"/>
</clipPath>
</defs>
</svg>
