<svg width="24" height="24" viewBox="0 0 24 24" fill="none" xmlns="http://www.w3.org/2000/svg">
<g clip-path="url(#clip0_141_5495)">
<path d="M9.14134 6.02631e-06C9.62752 -0.000871324 10.1091 0.0940575 10.5586 0.279368C11.0081 0.464679 11.4166 0.73674 11.7609 1.08001C12.4552 1.77504 12.8451 2.71724 12.8451 3.69961C12.8451 4.68197 12.4552 5.62417 11.7609 6.31921C11.7596 6.319 11.7583 6.31911 11.757 6.31952C11.7558 6.31993 11.7546 6.32063 11.7537 6.32157C11.7528 6.3225 11.7521 6.32364 11.7516 6.3249C11.7512 6.32616 11.7511 6.3275 11.7513 6.32881L11.7249 6.36001L11.7153 6.36961C11.6433 6.44161 11.5617 6.51361 11.4897 6.57721C11.4522 6.60969 11.406 6.6306 11.3569 6.6374C11.3077 6.64421 11.2576 6.63661 11.2127 6.61553C11.1677 6.59446 11.1298 6.5608 11.1036 6.51865C11.0774 6.47649 11.064 6.42764 11.0649 6.37801V5.65801C11.0626 5.59465 11.0855 5.53296 11.1285 5.48641C11.5772 4.97649 11.8157 4.31525 11.7956 3.63631C11.7756 2.95738 11.4986 2.31136 11.0205 1.82881C10.5231 1.33561 9.85248 1.0565 9.152 1.05112C8.45152 1.04574 7.77671 1.31451 7.27174 1.80001C7.27194 1.80131 7.27183 1.80265 7.27142 1.80391C7.27101 1.80517 7.27031 1.80631 7.26938 1.80725C7.26844 1.80818 7.2673 1.80888 7.26604 1.80929C7.26478 1.8097 7.26344 1.80981 7.26214 1.80961L7.24174 1.82401V1.83361C6.76183 2.31277 6.48234 2.95667 6.46005 3.63447C6.43776 4.31228 6.67434 4.97314 7.12174 5.48281C7.16477 5.52936 7.18763 5.59105 7.18534 5.65441V6.37441C7.18667 6.42397 7.17383 6.47288 7.14832 6.5154C7.12281 6.55791 7.0857 6.59226 7.04134 6.61441C6.99606 6.6353 6.94581 6.643 6.89636 6.63663C6.8469 6.63027 6.80024 6.61009 6.76174 6.57841C6.66823 6.50556 6.58075 6.4253 6.50014 6.33841C5.8059 5.64337 5.41594 4.70117 5.41594 3.71881C5.41594 2.73644 5.8059 1.79424 6.50014 1.09921C6.50974 1.09921 6.50974 1.09921 6.50974 1.08961L6.54094 1.05721L6.54934 1.04761C7.24489 0.375647 8.17421 4.81503e-05 9.14134 6.02631e-06ZM20.2773 17.0076V10.974C20.2773 10.6004 20.1289 10.242 19.8647 9.97783C19.6005 9.71363 19.2422 9.56521 18.8685 9.56521C18.4949 9.56521 18.1366 9.71363 17.8724 9.97783C17.6082 10.242 17.4597 10.6004 17.4597 10.974V11.214C17.4594 11.2373 17.4545 11.2602 17.4451 11.2816C17.4358 11.3029 17.4223 11.3221 17.4054 11.3381C17.3885 11.3541 17.3686 11.3665 17.3468 11.3747C17.325 11.3829 17.3018 11.3866 17.2785 11.3856H17.2017C17.1552 11.386 17.1104 11.3683 17.0766 11.3363C17.0428 11.3043 17.0227 11.2605 17.0205 11.214V9.60961C17.0205 9.23597 16.8721 8.87764 16.6079 8.61343C16.3437 8.34923 15.9854 8.20081 15.6117 8.20081C15.2381 8.20081 14.8798 8.34923 14.6156 8.61343C14.3514 8.87764 14.2029 9.23597 14.2029 9.60961V11.2092C14.2026 11.2325 14.1977 11.2554 14.1883 11.2768C14.179 11.2981 14.1655 11.3173 14.1486 11.3333C14.1317 11.3493 14.1118 11.3617 14.09 11.3699C14.0682 11.3781 14.045 11.3818 14.0217 11.3808H13.9617C13.9162 11.3808 13.8726 11.3627 13.8404 11.3305C13.8082 11.2984 13.7901 11.2547 13.7901 11.2092V9.14041C13.7901 8.76677 13.6417 8.40844 13.3775 8.14423C13.1133 7.88003 12.755 7.73161 12.3813 7.73161C12.0077 7.73161 11.6494 7.88003 11.3852 8.14423C11.121 8.40844 10.9725 8.76677 10.9725 9.14041V11.2092C10.9722 11.2325 10.9673 11.2554 10.9579 11.2768C10.9486 11.2981 10.9351 11.3173 10.9182 11.3333C10.9013 11.3493 10.8814 11.3617 10.8596 11.3699C10.8378 11.3781 10.8146 11.3818 10.7913 11.3808H10.7193C10.6738 11.3808 10.6302 11.3627 10.598 11.3305C10.5658 11.2984 10.5477 11.2547 10.5477 11.2092V3.88921C10.5477 3.51557 10.3993 3.15724 10.1351 2.89303C9.87091 2.62883 9.51257 2.48041 9.13894 2.48041C8.7653 2.48041 8.40697 2.62883 8.14276 2.89303C7.87856 3.15724 7.73014 3.51557 7.73014 3.88921V14.1492C7.73013 14.2144 7.70894 14.2779 7.66978 14.33C7.63061 14.3822 7.57557 14.4202 7.51294 14.4384C7.45139 14.4563 7.38558 14.4526 7.32642 14.428C7.26726 14.4033 7.21833 14.3591 7.18774 14.3028L5.95294 12.1668C5.74226 11.8049 5.39684 11.5412 4.99222 11.4332C4.58761 11.3253 4.15672 11.382 3.79379 11.5909C3.43086 11.7998 3.16543 12.1439 3.05553 12.548C2.94563 12.9521 3.00021 13.3833 3.20734 13.7472L4.72174 16.3752L7.24174 20.7192V20.7288C10.8933 26.5092 20.2785 24.2328 20.2785 17.0076H20.2773Z" fill="black"/>
</g>
<defs>
<clipPath id="clip0_141_5495">
<rect width="24" height="24" fill="white"/>
</clipPath>
</defs>
</svg>
