<svg width="24" height="24" viewBox="0 0 24 24" fill="none" xmlns="http://www.w3.org/2000/svg">
<g clip-path="url(#clip0_141_5235)">
<path d="M11.4732 3.03255C12.054 1.15815 12.99 -0.269845 14.3292 0.042155L12.0984 7.13655C10.8492 6.60135 10.8984 4.95015 11.4732 3.03135V3.03255ZM9.24244 16.4174C7.90444 16.1054 6.96244 17.5334 6.38644 19.4066C5.81044 21.2798 5.76124 22.9766 7.05604 23.5118L9.24244 16.4174ZM15.3552 0.355355L13.1244 7.49415C14.6412 8.25255 14.5524 10.3946 13.794 12.7586C13.0356 15.1226 11.9196 16.9586 10.224 16.685L7.99324 23.8238C12.5892 24.9842 15.6732 20.2538 17.6304 13.9634C19.6428 7.62735 19.7724 2.00535 15.3552 0.355355Z" fill="black"/>
</g>
<defs>
<clipPath id="clip0_141_5235">
<rect width="24" height="24" fill="white"/>
</clipPath>
</defs>
</svg>
