<svg width="24" height="24" viewBox="0 0 24 24" fill="none" xmlns="http://www.w3.org/2000/svg">
<g clip-path="url(#clip0_141_5268)">
<path d="M12 0C9.62663 0 7.30655 0.703788 5.33316 2.02236C3.35977 3.34094 1.8217 5.21509 0.913451 7.4078C0.00519941 9.60051 -0.232441 12.0133 0.230582 14.3411C0.693605 16.6689 1.83649 18.8071 3.51472 20.4853C5.19295 22.1635 7.33115 23.3064 9.65892 23.7694C11.9867 24.2324 14.3995 23.9948 16.5922 23.0866C18.7849 22.1783 20.6591 20.6402 21.9776 18.6668C23.2962 16.6935 24 14.3734 24 12C23.9908 8.82023 22.7236 5.77331 20.4751 3.52486C18.2267 1.27641 15.1798 0.00918146 12 0V0ZM12 21.5892C10.1013 21.5892 8.24524 21.0262 6.66653 19.9713C5.08782 18.9164 3.85736 17.4171 3.13076 15.663C2.40416 13.9088 2.21405 11.9786 2.58447 10.1163C2.95489 8.25412 3.8692 6.54356 5.21178 5.20097C6.55436 3.85839 8.26492 2.94408 10.1271 2.57366C11.9894 2.20324 13.9196 2.39336 15.6738 3.11996C17.4279 3.84656 18.9273 5.07701 19.9821 6.65573C21.037 8.23444 21.6 10.0905 21.6 11.9892C21.594 14.5334 20.5806 16.9717 18.7816 18.7708C16.9825 20.5698 14.5442 21.5832 12 21.5892Z" fill="black"/>
<path d="M15.2317 16.2612L12.1441 11.8092L17.4985 8.09758C17.7078 7.94487 17.8492 7.71644 17.8925 7.46099C17.9358 7.20554 17.8776 6.94327 17.7303 6.7301C17.5831 6.51693 17.3583 6.36973 17.1041 6.31986C16.8498 6.27 16.5862 6.32143 16.3693 6.46318L10.1929 10.7436C9.97732 10.8941 9.82983 11.1235 9.78242 11.3821C9.73502 11.6407 9.79152 11.9076 9.93967 12.1248L13.5877 17.3976C13.7382 17.6131 13.9676 17.7606 14.2262 17.808C14.4848 17.8554 14.7517 17.7989 14.9689 17.6508C15.186 17.4998 15.3352 17.2696 15.3844 17.0097C15.4335 16.7498 15.3787 16.481 15.2317 16.2612Z" fill="black"/>
</g>
<defs>
<clipPath id="clip0_141_5268">
<rect width="24" height="24" fill="white"/>
</clipPath>
</defs>
</svg>
