<svg width="24" height="24" viewBox="0 0 24 24" fill="none" xmlns="http://www.w3.org/2000/svg">
<path d="M24 4.30908C23.1007 4.70385 22.1487 4.96578 21.174 5.08669C22.2012 4.46717 22.9703 3.4978 23.34 2.35668C22.3738 2.93247 21.3161 3.33834 20.2128 3.55668C19.5376 2.83669 18.6617 2.33609 17.6986 2.11978C16.7355 1.90346 15.7296 1.98139 14.8114 2.34347C13.8931 2.70556 13.1048 3.3351 12.5485 4.15051C11.9922 4.96592 11.6937 5.92961 11.6916 6.91668C11.69 7.29437 11.7302 7.67107 11.8116 8.03988C9.85575 7.94127 7.94247 7.43265 6.19584 6.54704C4.4492 5.66142 2.90821 4.41857 1.6728 2.89908C1.04217 3.98174 0.848356 5.26421 1.13089 6.48487C1.41342 7.70553 2.15101 8.77241 3.1932 9.46788C2.4103 9.44409 1.64451 9.23299 0.96 8.85228V8.91109C0.960593 10.0481 1.3542 11.1499 2.07413 12.0299C2.79407 12.9099 3.79607 13.514 4.9104 13.7399C4.48673 13.855 4.04983 13.9143 3.6108 13.9163C3.3003 13.917 2.99046 13.8876 2.6856 13.8287C2.99995 14.8076 3.61266 15.6637 4.43791 16.277C5.26316 16.8903 6.25959 17.2301 7.2876 17.2487C5.54378 18.6162 3.3909 19.358 1.1748 19.3547C0.782262 19.3551 0.390023 19.333 0 19.2887C2.25136 20.7323 4.86993 21.4991 7.5444 21.4979C9.38776 21.51 11.2152 21.1559 12.9206 20.456C14.6259 19.7562 16.1753 18.7246 17.4788 17.4211C18.7823 16.1176 19.8139 14.5682 20.5137 12.8628C21.2136 11.1575 21.5677 9.33004 21.5556 7.48668C21.5556 7.27428 21.5484 7.06069 21.5412 6.84829C22.5053 6.15484 23.3379 5.29497 24 4.30908Z" fill="black"/>
</svg>
