<svg width="24" height="24" viewBox="0 0 24 24" fill="none" xmlns="http://www.w3.org/2000/svg">
<g clip-path="url(#clip0_141_5478)">
<path d="M24 24V21.0555C23.5943 20.036 22.9859 19.1099 22.2119 18.3338C21.4378 17.5576 20.5143 16.9475 19.4976 16.5407H18C17.2044 16.5407 16.4413 16.2237 15.8787 15.6596C15.3161 15.0954 15 14.3302 15 13.5324V12.5698C15.6605 11.7748 16.1507 10.8519 16.44 9.8587C16.4676 9.68663 16.6296 9.61804 16.7376 9.49771C17.0184 9.20392 17.1959 8.82623 17.2431 8.42205C17.2903 8.01786 17.2047 7.60927 16.9992 7.25835C16.9356 7.15005 16.8372 7.0598 16.8372 6.93346C16.8372 6.04902 16.8468 5.17302 16.8372 4.28618C16.8554 3.20013 16.4739 2.14545 15.7656 1.32363C15.1473 0.700401 14.3501 0.286792 13.4856 0.140777C12.405 -0.0704069 11.2917 -0.0453702 10.2216 0.214179C9.28259 0.442785 8.45755 1.00387 7.8984 1.79412C7.44108 2.50568 7.19166 3.33146 7.1784 4.17788C7.1604 5.07194 7.1688 5.97442 7.1688 6.8781C7.1868 7.0586 7.0332 7.17653 6.9612 7.32935C6.76511 7.70267 6.70025 8.13139 6.77711 8.54624C6.85398 8.96109 7.06807 9.33784 7.3848 9.61563C7.51995 9.75107 7.61114 9.92429 7.6464 10.1126C7.93879 11.0013 8.39827 11.8256 9 12.5409V13.5348C9 14.3327 8.68393 15.0978 8.12132 15.662C7.55871 16.2261 6.79565 16.5431 6 16.5431H4.5024C3.48473 16.9476 2.56033 17.5566 1.78604 18.3326C1.01176 19.1086 0.403952 20.0352 0 21.0555V24H24Z" fill="black"/>
</g>
<defs>
<clipPath id="clip0_141_5478">
<rect width="24" height="24" fill="white"/>
</clipPath>
</defs>
</svg>
