<svg width="24" height="24" viewBox="0 0 24 24" fill="none" xmlns="http://www.w3.org/2000/svg">
<path d="M16.5025 8.75567C16.5097 8.63247 16.5133 8.50847 16.5133 8.38367C16.5133 4.31203 12.8101 1 8.25727 1C3.70443 1 0 4.31203 0 8.38487C0.00691913 9.30347 0.196466 10.2115 0.557611 11.0562C0.918756 11.9009 1.44429 12.6653 2.10362 13.3049L1.23361 15.6233C1.20447 15.7 1.19946 15.7837 1.21924 15.8632C1.23902 15.9428 1.28265 16.0144 1.34428 16.0684C1.40591 16.1225 1.4826 16.1564 1.56405 16.1657C1.64551 16.1749 1.72784 16.159 1.80002 16.1201L4.22524 14.8265C5.47804 15.4473 6.85792 15.7685 8.25607 15.7649C8.40328 15.7649 8.54968 15.7613 8.69528 15.7541C8.70248 11.8985 12.2005 8.76047 16.5025 8.75567ZM10.4725 6.50445C10.7913 6.50445 11.1029 6.599 11.368 6.77614C11.633 6.95328 11.8396 7.20505 11.9615 7.4996C12.0835 7.79416 12.1153 8.11826 12.0531 8.43092C11.9908 8.74357 11.8372 9.03073 11.6117 9.25607C11.3861 9.48141 11.0989 9.63481 10.7862 9.69686C10.4735 9.75891 10.1494 9.72682 9.85492 9.60466C9.56046 9.48249 9.30884 9.27574 9.1319 9.01056C8.95496 8.74537 8.86064 8.43366 8.86088 8.11486C8.8612 7.68764 9.03113 7.27803 9.33333 6.97606C9.63554 6.67408 10.0453 6.50445 10.4725 6.50445ZM7.42327 8.94047C7.24703 9.23335 6.98224 9.4626 6.66716 9.59511C6.35208 9.72763 6.00303 9.75653 5.67045 9.67764C5.33786 9.59876 5.03897 9.41617 4.81697 9.15627C4.59496 8.89637 4.46134 8.57262 4.43541 8.23179C4.40948 7.89097 4.49259 7.55072 4.67272 7.26023C4.85285 6.96973 5.12068 6.74403 5.4375 6.61574C5.75432 6.48745 6.10373 6.46321 6.43523 6.54653C6.76673 6.62985 7.06315 6.81641 7.28167 7.07925C7.49548 7.33644 7.62398 7.65378 7.64935 7.98728C7.67472 8.32077 7.59571 8.6539 7.42327 8.94047Z" fill="black"/>
<path d="M24 15.7675C24 12.0834 20.64 9.0858 16.5131 9.0858C12.3863 9.0858 9.02386 12.0858 9.02386 15.7675C9.02386 19.4491 12.3839 22.4527 16.5131 22.4527C17.3405 22.4553 18.1637 22.3339 18.9551 22.0927L19.026 22.0711L21.6264 23.6311C21.6664 23.6539 21.7121 23.6647 21.758 23.6622C21.8039 23.6597 21.8482 23.644 21.8855 23.6171C21.9228 23.5902 21.9516 23.5531 21.9684 23.5102C21.9852 23.4674 21.9894 23.4207 21.9804 23.3755L21.414 20.8267L21.4956 20.7631C22.2637 20.1741 22.8882 19.4185 23.322 18.5532C23.7558 17.6878 23.9876 16.7354 24 15.7675ZM14.0963 17.2171C13.8096 17.2171 13.5293 17.1321 13.2909 16.9728C13.0526 16.8135 12.8668 16.5871 12.757 16.3222C12.6473 16.0573 12.6186 15.7659 12.6745 15.4847C12.7305 15.2035 12.8685 14.9452 13.0713 14.7424C13.274 14.5397 13.5323 14.4016 13.8135 14.3457C14.0947 14.2898 14.3862 14.3185 14.651 14.4282C14.9159 14.5379 15.1423 14.7237 15.3016 14.9621C15.4609 15.2005 15.5459 15.4808 15.5459 15.7675C15.5459 16.1519 15.3932 16.5206 15.1213 16.7925C14.8495 17.0644 14.4808 17.2171 14.0963 17.2171ZM18.93 17.2171C18.6432 17.2171 18.363 17.1321 18.1246 16.9728C17.8862 16.8135 17.7004 16.5871 17.5907 16.3222C17.481 16.0573 17.4523 15.7659 17.5082 15.4847C17.5641 15.2035 17.7022 14.9452 17.9049 14.7424C18.1076 14.5397 18.3659 14.4016 18.6471 14.3457C18.9283 14.2898 19.2198 14.3185 19.4847 14.4282C19.7496 14.5379 19.976 14.7237 20.1353 14.9621C20.2945 15.2005 20.3796 15.4808 20.3796 15.7675C20.3796 16.1511 20.2275 16.5191 19.9567 16.7908C19.6859 17.0625 19.3184 17.2158 18.9347 17.2171H18.93Z" fill="black"/>
</svg>
