<svg width="24" height="24" viewBox="0 0 24 24" fill="none" xmlns="http://www.w3.org/2000/svg">
<path d="M19.4074 11.9894C18.9766 11.7215 18.5131 11.5101 18.0284 11.3605C17.9204 11.3245 17.8447 11.2981 17.8003 11.2801C17.7422 11.2543 17.6881 11.2203 17.6395 11.1793C17.6115 11.1626 17.5902 11.1368 17.579 11.1061C17.5679 11.0755 17.5676 11.042 17.5783 11.0112C17.6069 10.9237 17.6274 10.8337 17.6395 10.7424C17.841 10.3773 17.9467 9.96703 17.9467 9.54999C17.9467 9.13295 17.841 8.7227 17.6395 8.35758C17.3881 8.0677 17.0709 7.84231 16.7144 7.7003C16.3579 7.5583 15.9726 7.50382 15.5907 7.54144C14.4519 7.58396 13.3328 7.85241 12.2986 8.33118L12.2182 8.35758C12.1588 8.37743 12.0983 8.39346 12.0369 8.40559C11.9729 8.41872 11.9072 8.42075 11.8425 8.41159C11.8134 8.40971 11.7853 8.40017 11.7611 8.38394C11.7368 8.36771 11.7173 8.34537 11.7045 8.31918C11.6781 8.23099 11.6832 8.13638 11.7189 8.05153C12.1189 6.7561 12.0297 5.82274 11.4512 5.25144C10.7911 4.59052 9.69011 4.55931 8.14824 5.15782C6.42069 5.88275 4.86298 6.95937 3.57423 8.31918C2.52922 9.33511 1.63952 10.4994 0.933771 11.7746C0.356497 12.775 0.0357109 13.9027 6.71475e-06 15.0572C-0.00164961 16.0184 0.303158 16.9551 0.87016 17.7312C1.47528 18.5682 2.26077 19.2586 3.16856 19.7512C4.18188 20.3064 5.26429 20.7249 6.38753 20.9958C7.59232 21.2958 8.82941 21.4465 10.071 21.4447C11.291 21.4518 12.5077 21.3148 13.6956 21.0366C14.7483 20.7983 15.7658 20.4248 16.7225 19.9252C17.5361 19.4948 18.2939 18.9664 18.9789 18.3517C19.5708 17.8308 20.066 17.2096 20.442 16.5166C20.7574 15.944 20.9276 15.3028 20.9377 14.6491C20.943 14.0954 20.7843 13.5525 20.4816 13.0888C20.2087 12.6506 19.8428 12.2777 19.4098 11.9966L19.4074 11.9894ZM15.035 18.1357C13.6064 19.2408 11.8833 19.8997 10.0818 20.0296C8.8494 20.1598 7.60362 20.0643 6.40553 19.7476C5.36936 19.4945 4.41064 18.9923 3.61264 18.2845C2.94032 17.7032 2.51425 16.888 2.42083 16.0041C2.38511 15.3106 2.53042 14.6198 2.84249 13.9994C3.15455 13.3791 3.62263 12.8506 4.20074 12.4659C5.62685 11.3621 7.34697 10.7037 9.14561 10.5732C10.3779 10.4424 11.6237 10.5376 12.8219 10.854C13.8577 11.1079 14.8163 11.61 15.6147 12.3171C16.2872 12.8981 16.713 13.7136 16.8054 14.5975C16.8427 15.2912 16.6988 15.9827 16.3877 16.604C16.0767 17.2252 15.6093 17.7547 15.0314 18.1405L15.035 18.1357Z" fill="black"/>
<path d="M10.473 12.5727C9.53194 12.3311 8.53635 12.4209 7.65373 12.8271C6.77695 13.1859 6.05719 13.8461 5.62418 14.6887C5.41802 15.0727 5.3029 15.4989 5.28771 15.9345C5.27252 16.3701 5.35765 16.8033 5.53656 17.2007C5.71928 17.6122 5.9914 17.9778 6.33313 18.271C6.67486 18.5641 7.07761 18.7774 7.51211 18.8954C8.49745 19.2171 9.56732 19.1597 10.5126 18.7346C11.4553 18.3696 12.216 17.6477 12.6298 16.7254C12.8284 16.3283 12.929 15.8895 12.9231 15.4455C12.9173 15.0016 12.8052 14.5655 12.5962 14.1738C12.3799 13.7689 12.078 13.416 11.7116 13.1395C11.3452 12.863 10.9229 12.6696 10.4742 12.5727H10.473ZM9.03998 16.9127C8.84307 17.2165 8.54573 17.4417 8.19983 17.5488C8.03953 17.6096 7.86879 17.6382 7.69742 17.6328C7.52605 17.6275 7.35743 17.5883 7.20125 17.5176C7.05968 17.4566 6.93406 17.3638 6.83415 17.2464C6.73424 17.129 6.66273 16.9902 6.62515 16.8406C6.58703 16.6838 6.58294 16.5206 6.61317 16.362C6.64339 16.2034 6.70723 16.0531 6.80038 15.9213C6.98737 15.6268 7.27274 15.4082 7.60573 15.3044C7.92198 15.1883 8.27 15.1935 8.58269 15.3188C8.72807 15.3758 8.85808 15.4661 8.96229 15.5824C9.0665 15.6987 9.14202 15.8378 9.1828 15.9885C9.22713 16.1439 9.237 16.3071 9.21171 16.4668C9.18642 16.6264 9.12657 16.7786 9.03637 16.9127H9.03998ZM10.299 15.2924C10.2365 15.4094 10.1318 15.4982 10.0061 15.5408C9.8815 15.5897 9.74337 15.5918 9.61727 15.5468C9.34963 15.4268 9.29202 15.2216 9.44445 14.9467C9.50623 14.8312 9.60898 14.743 9.73249 14.6995C9.85453 14.6504 9.99036 14.6478 10.1142 14.6923C10.1708 14.7121 10.2219 14.7449 10.2636 14.7881C10.3053 14.8312 10.3363 14.8835 10.3542 14.9407C10.3748 15.0003 10.3812 15.0639 10.3729 15.1264C10.3646 15.189 10.3417 15.2487 10.3062 15.3008L10.299 15.2924Z" fill="black"/>
<path d="M19.1402 9.42447C19.2117 9.56149 19.3219 9.67448 19.4571 9.74939C19.5923 9.82429 19.7465 9.85782 19.9006 9.8458C20.0547 9.83378 20.2019 9.77674 20.3238 9.68178C20.4457 9.58681 20.5371 9.45811 20.5865 9.31166C20.7565 8.80455 20.7867 8.26102 20.6741 7.73818C20.5658 7.19648 20.3128 6.69422 19.942 6.28472C19.5805 5.87296 19.1125 5.56895 18.5893 5.40617C18.0738 5.24138 17.5239 5.21612 16.9954 5.33296C16.894 5.35172 16.7975 5.39139 16.7121 5.44946C16.6268 5.50752 16.5545 5.5827 16.4998 5.67021C16.4419 5.75766 16.4023 5.85589 16.3833 5.959C16.3644 6.06212 16.3664 6.16801 16.3893 6.27032C16.4049 6.37277 16.4431 6.47045 16.5012 6.55622C16.5594 6.64199 16.636 6.71366 16.7254 6.766C16.9032 6.88001 17.1191 6.91886 17.3255 6.87402C17.5857 6.82072 17.8554 6.83647 18.1077 6.9197C18.36 7.00293 18.5861 7.15074 18.7635 7.34844C18.9409 7.54614 19.0635 7.78685 19.1191 8.04662C19.1746 8.30639 19.1612 8.57618 19.0802 8.82917C19.0482 8.92765 19.0364 9.03161 19.0457 9.13476C19.055 9.23791 19.0851 9.3381 19.1342 9.42928L19.1402 9.42447Z" fill="black"/>
<path d="M23.8747 7.08061C23.6541 5.96735 23.1313 4.9363 22.3636 4.10049C21.6181 3.25526 20.6537 2.63227 19.5767 2.30017C18.5205 1.9642 17.3949 1.90918 16.3109 2.14054C16.1916 2.16294 16.078 2.20952 15.9773 2.27742C15.8765 2.34533 15.7908 2.43313 15.7252 2.53541C15.6576 2.63522 15.6114 2.74801 15.5898 2.86662C15.5681 2.98522 15.5713 3.10704 15.5992 3.22433C15.6243 3.3432 15.6726 3.45595 15.7414 3.5561C15.8102 3.65626 15.898 3.74185 15.9999 3.80798C16.1018 3.8741 16.2158 3.91945 16.3353 3.94143C16.4548 3.96341 16.5774 3.96159 16.6962 3.93606C17.4668 3.77402 18.2661 3.81287 19.0174 4.04888C19.7802 4.29483 20.4642 4.73867 20.9995 5.33515C21.5348 5.93163 21.9024 6.65941 22.0647 7.44428C22.2276 8.21055 22.1812 9.00655 21.9303 9.74868C21.8612 9.98106 21.8852 10.2312 21.9972 10.4462C22.1092 10.6613 22.3004 10.8243 22.5304 10.9009C22.6438 10.9409 22.7643 10.9568 22.8842 10.9475C23.0041 10.9382 23.1207 10.9039 23.2266 10.8469C23.3343 10.7926 23.4301 10.7172 23.5082 10.6253C23.5863 10.5334 23.6452 10.4267 23.6814 10.3116C24.0319 9.2673 24.0945 8.14786 23.8627 7.07101L23.8747 7.08061Z" fill="black"/>
</svg>
