<svg width="24" height="24" viewBox="0 0 24 24" fill="none" xmlns="http://www.w3.org/2000/svg">
<path d="M24 11.6976C23.9805 13.739 23.4322 15.7404 22.4085 17.5067C21.3849 19.273 19.9209 20.7438 18.1594 21.7756C16.3978 22.8074 14.3989 23.3649 12.3577 23.3939C10.3164 23.4229 8.30249 22.9222 6.5124 21.9408L0 24L2.1228 17.7228C1.0142 15.9053 0.429476 13.8169 0.4332 11.688C0.465769 8.58343 1.72223 5.61716 3.92953 3.43378C6.13684 1.2504 9.11662 0.0263394 12.2214 0.0276041C15.3261 0.0288688 18.3049 1.25535 20.5104 3.44053C22.7159 5.62571 23.97 8.593 24 11.6976ZM12.2208 1.85759C9.60399 1.84961 7.09093 2.88026 5.23326 4.72331C3.37559 6.56636 2.3251 9.07119 2.3124 11.688C2.31289 13.7599 2.97413 15.7776 4.2 17.448L2.9628 21.1008L6.7752 19.89C8.05489 20.7515 9.51897 21.3005 11.0496 21.4929C12.5802 21.6853 14.1346 21.5156 15.5877 20.9976C17.0408 20.4795 18.3519 19.6276 19.4156 18.5103C20.4793 17.393 21.2658 16.0416 21.7119 14.5648C22.158 13.088 22.2511 11.5272 21.9838 10.0079C21.7165 8.48853 21.0962 7.05318 20.1729 5.81735C19.2495 4.58151 18.049 3.57971 16.6678 2.89257C15.2866 2.20544 13.7634 1.85216 12.2208 1.86119V1.85759ZM18.1728 14.3856C18.1008 14.2656 17.9112 14.196 17.622 14.0508C17.3328 13.9056 15.9144 13.2108 15.6444 13.1208C15.3744 13.0308 15.1836 12.9768 14.994 13.2648C14.8044 13.5528 14.244 14.1948 14.082 14.3844C13.92 14.574 13.7472 14.6016 13.4592 14.4564C12.6088 14.1219 11.823 13.6419 11.1372 13.038C10.5062 12.4585 9.96433 11.7888 9.5292 11.0508C9.3576 10.7616 9.5112 10.608 9.6552 10.464C9.7812 10.338 9.9444 10.1292 10.0884 9.95759C10.205 9.81069 10.3022 9.64936 10.3776 9.47759C10.4163 9.39776 10.4341 9.3094 10.4293 9.22082C10.4244 9.13223 10.3972 9.04633 10.35 8.97119C10.278 8.82719 9.6996 7.41719 9.456 6.83999C9.2124 6.26279 8.976 6.35999 8.8056 6.35999C8.6352 6.35999 8.4456 6.33239 8.2548 6.33239C8.10887 6.33612 7.96529 6.37003 7.83311 6.43199C7.70094 6.49395 7.58302 6.58261 7.4868 6.69239C7.16127 7.00115 6.90362 7.37433 6.73028 7.78816C6.55694 8.20199 6.4717 8.6474 6.48 9.09599C6.57517 10.1783 6.98665 11.2087 7.6632 12.0588C8.8654 13.9381 10.5754 15.4385 12.5952 16.386C15.5304 17.5332 15.5304 17.154 16.0632 17.1C16.4661 17.0226 16.8482 16.8611 17.1844 16.626C17.5206 16.3909 17.8035 16.0875 18.0144 15.7356C18.1987 15.3122 18.2542 14.8439 18.174 14.3892L18.1728 14.3856Z" fill="black"/>
</svg>
