<svg width="24" height="24" viewBox="0 0 24 24" fill="none" xmlns="http://www.w3.org/2000/svg">
<g clip-path="url(#clip0_141_5435)">
<path d="M22.1825 5.31841L21.8225 5.43841L19.9025 5.61001L19.3613 6.47641L18.9725 6.35041L17.4461 4.97761L17.2289 4.26481L16.9313 3.50641L15.9713 2.64841L14.8421 2.43121L14.8145 2.94601L15.9161 4.02601L16.4573 4.66681L15.8573 4.98241L15.3605 4.83841L14.6201 4.53121L14.6477 3.93121L13.6721 3.53401L13.3469 4.94281L12.3809 5.15041L12.4805 5.93641L13.7621 6.17641L13.9793 4.92121L15.0353 5.07481L15.5225 5.36401H16.3085L16.8498 6.44401L18.2765 7.88401L18.1685 8.44441L17.0129 8.30881L15.0269 9.31081L13.5869 11.0268L13.3973 11.7852H12.8825L11.9225 11.3424L10.9925 11.7852L11.2325 12.7692L11.6393 12.3L12.3521 12.282L12.3065 13.1664L12.8933 13.338L13.4801 13.9968L14.4401 13.7256L15.5417 13.8972L16.8149 14.2404L17.4557 14.3124L18.5357 15.54L20.6213 16.7676L19.2749 19.3488L17.8481 20.0076L17.3069 21.4788L15.2477 22.8516L15.0305 23.646C16.9096 23.1941 18.6515 22.2944 20.1077 21.0238C21.5639 19.7532 22.6913 18.1493 23.3937 16.3488C24.0961 14.5483 24.3526 12.6047 24.1416 10.6836C23.9305 8.76254 23.2579 6.921 22.1814 5.31601L22.1825 5.31841Z" fill="black"/>
<path d="M13.5965 18.2664L12.7205 16.65L13.5245 14.9796L12.7205 14.7396L11.8181 13.8372L9.8237 13.3824L9.1625 12.0012V12.8232H8.8733L7.1573 10.494V8.57401L5.8937 6.52921L3.8897 6.88921H2.5445L1.8677 6.44641L2.7341 5.76001L1.8677 5.95921C0.717818 7.88794 0.13554 10.102 0.187803 12.3469C0.240066 14.5918 0.924749 16.7764 2.16314 18.6495C3.40154 20.5226 5.14337 22.0083 7.18841 22.9357C9.23345 23.8631 11.4987 24.1945 13.7237 23.892L13.5965 22.4412C13.5965 22.4412 14.1473 20.2812 14.1473 20.2104C14.1473 20.1396 13.5965 18.2664 13.5965 18.2664Z" fill="black"/>
<path d="M4.68405 3.86401L6.81525 3.57481L7.79925 3.03361L8.90085 3.34921L10.6708 3.24961L11.2709 2.30161L12.1552 2.44561L14.2949 2.24641L14.8816 1.59601L15.7121 1.03561L16.8857 1.21561L17.3189 1.15201C14.9115 0.0100209 12.1915 -0.294472 9.59128 0.286938C6.99103 0.868347 4.65975 2.30229 2.96805 4.36081H2.97765L4.68405 3.86401ZM12.724 1.19161L13.948 0.514812L14.7281 0.966012L13.5904 1.83241L12.5105 1.94041L12.0232 1.62481L12.724 1.19161ZM9.09405 1.29121L9.63525 1.51681L10.3396 1.29121L10.7285 1.95961L9.09405 2.39281L8.30805 1.93201C8.30805 1.93201 9.08085 1.44001 9.09885 1.29121H9.09405Z" fill="black"/>
</g>
<defs>
<clipPath id="clip0_141_5435">
<rect width="24" height="24" fill="white"/>
</clipPath>
</defs>
</svg>
