<svg width="24" height="24" viewBox="0 0 24 24" fill="none" xmlns="http://www.w3.org/2000/svg">
<g clip-path="url(#clip0_141_5457)">
<path d="M8.2838 5.38439C8.20042 5.197 8.06638 5.0366 7.89677 4.92127C7.72717 4.80593 7.52873 4.74024 7.3238 4.73159H3.8582C3.76839 4.72241 3.67777 4.73777 3.59599 4.77602C3.51421 4.81427 3.44433 4.87397 3.3938 4.94879C3.34182 5.0296 3.31529 5.12416 3.31764 5.22022C3.32 5.31628 3.35113 5.40942 3.407 5.48759L5.7422 9.53519C5.7518 9.54479 5.7518 9.54959 5.7422 9.54959L2.0726 16.0476C2.0251 16.1266 2 16.217 2 16.3092C2 16.4014 2.0251 16.4918 2.0726 16.5708C2.11734 16.6502 2.18346 16.7154 2.26343 16.7591C2.3434 16.8028 2.43402 16.8232 2.525 16.818H5.9906C6.19365 16.8031 6.38876 16.733 6.5548 16.6151C6.72084 16.4973 6.85149 16.3363 6.9326 16.1496C9.3214 11.9096 10.5646 9.70479 10.6622 9.53519L8.2838 5.38439Z" fill="black"/>
<path d="M22.3557 0.753696C22.4063 0.677092 22.4342 0.587758 22.4363 0.495985C22.4383 0.404212 22.4143 0.313734 22.3672 0.234976C22.32 0.156218 22.2516 0.0923844 22.1697 0.0508288C22.0879 0.00927315 21.996 -0.0083133 21.9045 9.559e-05H18.4101C18.2093 0.00980294 18.0152 0.0762912 17.8506 0.191841C17.686 0.307391 17.5575 0.467263 17.4801 0.652896L9.77734 14.3197L14.6973 23.3437C14.7764 23.5342 14.9093 23.6975 15.0799 23.8135C15.2504 23.9294 15.4511 23.9931 15.6573 23.9965H19.1253C19.218 24.0085 19.3121 23.9932 19.3962 23.9525C19.4803 23.9117 19.5507 23.8474 19.5987 23.7672C19.6467 23.6871 19.6703 23.5947 19.6666 23.5013C19.6629 23.408 19.632 23.3178 19.5777 23.2417L14.6973 14.3185V14.3041L22.3557 0.753696Z" fill="black"/>
</g>
<defs>
<clipPath id="clip0_141_5457">
<rect width="24" height="24" fill="white"/>
</clipPath>
</defs>
</svg>
