<svg width="24" height="24" viewBox="0 0 24 24" fill="none" xmlns="http://www.w3.org/2000/svg">
<g clip-path="url(#clip0_141_5253)">
<path d="M5.65304 7.91867C5.55504 7.86304 5.44547 7.83091 5.33294 7.8248C5.22042 7.81869 5.10801 7.83877 5.00455 7.88346C4.9011 7.92815 4.80943 7.99622 4.73674 8.08234C4.66405 8.16846 4.61234 8.27026 4.58566 8.37975L3.41568 11.1404L2.31025 8.36822C2.27368 8.26661 2.21638 8.17371 2.142 8.09541C2.06762 8.01712 1.97777 7.95514 1.87817 7.91341C1.77856 7.87169 1.67137 7.85112 1.56339 7.85301C1.45541 7.85491 1.34901 7.87923 1.25093 7.92443C0.631937 8.13192 0.833657 8.76474 0.868238 8.88462L2.60764 12.8729L1.9241 14.3714C1.87173 14.458 1.83929 14.5552 1.82911 14.6559C1.81894 14.7566 1.83129 14.8583 1.86528 14.9536C1.89926 15.049 1.95403 15.1355 2.02561 15.2071C2.09718 15.2786 2.18378 15.3334 2.27913 15.3673C2.8889 15.6048 3.17016 15.2521 3.36957 14.8475L6.02882 8.87886C6.07485 8.79248 6.10163 8.69716 6.10732 8.59945C6.113 8.50174 6.09745 8.40395 6.06175 8.31282C6.02604 8.22169 5.97102 8.13937 5.90046 8.07153C5.82991 8.00369 5.7455 7.95194 5.65304 7.91982V7.91867Z" fill="black"/>
<path d="M8.05268 8.33717C7.41413 8.33102 6.79927 8.57865 6.34321 9.02564C5.88715 9.47262 5.6272 10.0824 5.62051 10.7209C5.61037 11.041 5.66671 11.3596 5.78596 11.6567C5.90522 11.9539 6.0848 12.2231 6.31336 12.4473C6.54192 12.6715 6.81449 12.8459 7.11387 12.9595C7.41324 13.073 7.73291 13.1232 8.05268 13.107C8.37458 13.133 8.69833 13.0896 9.00197 12.9796C9.30562 12.8696 9.58207 12.6956 9.81261 12.4695C10.0432 12.2433 10.2224 11.9702 10.3382 11.6688C10.454 11.3673 10.5036 11.0444 10.4837 10.7221C10.4773 10.0836 10.2176 9.47387 9.76175 9.02686C9.30587 8.57984 8.69112 8.33218 8.05268 8.33832V8.33717ZM8.05268 12.0315C7.79248 12.0733 7.52575 12.0342 7.28847 11.9195C7.05119 11.8049 6.85482 11.6202 6.72585 11.3904C6.59688 11.1606 6.54152 10.8967 6.56727 10.6344C6.59302 10.3722 6.69863 10.1241 6.86983 9.92379C7.04103 9.72345 7.26957 9.58046 7.52462 9.51414C7.77966 9.44782 8.04893 9.46135 8.29603 9.55292C8.54314 9.64448 8.7562 9.80966 8.90645 10.0262C9.0567 10.2427 9.13689 10.5001 9.13621 10.7636C9.15824 11.0749 9.05696 11.3823 8.85423 11.6196C8.6515 11.8568 8.36359 12.0048 8.05268 12.0315Z" fill="black"/>
<path d="M14.3134 8.47103C13.8972 8.49754 13.6851 8.74076 13.6575 9.19146V11.4046C13.6564 11.5153 13.6329 11.6246 13.5883 11.7259C13.5436 11.8272 13.4789 11.9184 13.3979 11.9939C13.3169 12.0694 13.2214 12.1276 13.1172 12.165C13.013 12.2024 12.9023 12.2182 12.7918 12.2115C12.0114 12.2299 11.9054 11.6732 11.9065 11.4738V9.25601C11.8892 8.81223 11.6852 8.5886 11.2841 8.57131C11.19 8.57117 11.0968 8.59024 11.0103 8.62735C10.9238 8.66446 10.8459 8.71884 10.7811 8.78714C10.7164 8.85545 10.6662 8.93625 10.6338 9.0246C10.6014 9.11295 10.5873 9.20699 10.5925 9.30097V11.5072C10.6006 11.7839 10.5591 13.2086 12.7826 13.1775C13.0466 13.2094 13.3143 13.1872 13.5695 13.1123C13.8247 13.0374 14.0619 12.9114 14.2668 12.7418C14.4717 12.5723 14.64 12.3629 14.7613 12.1262C14.8827 11.8896 14.9546 11.6307 14.9727 11.3654V9.1442C14.9818 9.05405 14.9708 8.96299 14.9405 8.8776C14.9102 8.79222 14.8613 8.71463 14.7973 8.65045C14.7333 8.58626 14.6559 8.53708 14.5706 8.50645C14.4853 8.47582 14.3943 8.46451 14.3041 8.47334L14.3134 8.47103Z" fill="black"/>
<path d="M23.3293 8.50525C23.2381 8.50129 23.1472 8.51702 23.0627 8.55135C22.9782 8.58568 22.902 8.63781 22.8395 8.7042C22.7769 8.7706 22.7294 8.84969 22.7002 8.93609C22.6709 9.0225 22.6606 9.11419 22.67 9.20493V11.4135C22.6644 11.5217 22.6373 11.6277 22.5903 11.7253C22.5433 11.8229 22.4773 11.9102 22.3962 11.982C22.315 12.0538 22.2204 12.1087 22.1178 12.1435C22.0152 12.1783 21.9066 12.1923 21.7985 12.1846C21.69 12.1937 21.5808 12.1808 21.4774 12.1466C21.3741 12.1124 21.2787 12.0576 21.1971 11.9855C21.1154 11.9135 21.0492 11.8257 21.0025 11.7274C20.9557 11.629 20.9292 11.5223 20.9248 11.4135V9.20378C20.9006 8.75884 20.6943 8.51217 20.2874 8.5041C19.8355 8.5041 19.628 8.7623 19.6049 9.20609V11.4169C19.6533 12.5281 20.3807 13.1125 21.7951 13.1344C23.2209 13.1125 23.9356 12.5293 23.9979 11.4135V9.20378C24.0054 9.11274 23.9936 9.02112 23.9632 8.93498C23.9328 8.84884 23.8844 8.77012 23.8213 8.70401C23.7583 8.63791 23.6819 8.58591 23.5973 8.55145C23.5127 8.517 23.4218 8.50086 23.3305 8.5041L23.3293 8.50525Z" fill="black"/>
<path d="M18.0191 10.7567L19.1949 9.73309C19.1949 9.73309 19.7781 9.17864 19.2675 8.69567C19.1268 8.56945 18.9442 8.50012 18.7552 8.50118C18.5662 8.50225 18.3843 8.57363 18.2451 8.70143L16.5287 10.3233L16.5206 9.14867C16.5259 9.05841 16.5112 8.96809 16.4777 8.88412C16.4442 8.80015 16.3926 8.72458 16.3266 8.66277C16.2606 8.60096 16.1818 8.55441 16.0958 8.52644C16.0098 8.49846 15.9188 8.48973 15.829 8.50086C15.739 8.4878 15.6473 8.49515 15.5605 8.52235C15.4738 8.54955 15.3942 8.59591 15.3278 8.65801C15.2614 8.7201 15.2098 8.79634 15.1769 8.88107C15.1439 8.96581 15.1304 9.05687 15.1374 9.14752V12.5157C15.1616 12.9087 15.3979 13.0989 15.829 13.0989C16.282 13.0989 16.5091 12.8926 16.5287 12.5157V11.2627L18.4376 12.8765C18.5824 12.9889 18.7612 13.0487 18.9445 13.046C19.1278 13.0433 19.3048 12.9782 19.4462 12.8615C19.5626 12.7142 19.6158 12.5268 19.5942 12.3403C19.5726 12.1538 19.4779 11.9835 19.3309 11.8667L18.0191 10.7567Z" fill="black"/>
</g>
<defs>
<clipPath id="clip0_141_5253">
<rect width="24" height="24" fill="white"/>
</clipPath>
</defs>
</svg>
