<svg width="24" height="24" viewBox="0 0 24 24" fill="none" xmlns="http://www.w3.org/2000/svg">
<path d="M22.078 11.6501V12.0867H21.23V11.6501C21.23 11.2135 21.3727 10.9952 21.6582 10.9952C21.9353 10.9952 22.078 11.2135 22.078 11.6501ZM18.4797 10.9952C18.3165 11.0053 18.1639 11.0794 18.0551 11.2015V14.0849C18.1082 14.1467 18.1732 14.1971 18.2461 14.2334C18.319 14.2696 18.3984 14.2909 18.4797 14.296C18.728 14.296 18.8515 14.0849 18.8515 13.6603V11.6381C18.8515 11.2135 18.7232 10.9952 18.4785 10.9952H18.4797ZM23.9887 11.9427C24.0305 13.0624 23.9472 14.1832 23.7404 15.2844C23.6606 15.6461 23.4705 15.9742 23.1964 16.2234C22.9223 16.4725 22.5776 16.6306 22.21 16.6757C20.4485 16.8387 18.6795 16.904 16.9108 16.8712C15.1419 16.9061 13.3724 16.8428 11.6105 16.6817C11.2412 16.6371 10.8949 16.4786 10.6198 16.2282C10.3446 15.9778 10.1543 15.6479 10.0753 15.2844C9.87272 14.1807 9.79228 13.058 9.83537 11.9367C9.79519 10.8151 9.87845 9.69253 10.0837 8.58912C10.1646 8.2285 10.3552 7.90175 10.6292 7.65372C10.9032 7.40569 11.2473 7.24852 11.6141 7.20378C13.3751 7.04071 15.1438 6.97544 16.912 7.00827C18.6815 6.97538 20.4514 7.04065 22.2136 7.20378C22.5821 7.24797 22.9278 7.4056 23.2028 7.65486C23.4779 7.90412 23.6687 8.23269 23.7488 8.59512C23.9514 9.69881 24.0318 10.8214 23.9887 11.9427ZM13.8715 8.66709H10.8885V9.55827H11.896V15.0013H12.8472V9.55827H13.8703V8.66709H13.8715ZM16.4551 10.2839H15.5927V13.8906C15.4044 14.1581 15.2244 14.2888 15.0505 14.2888C14.9378 14.2888 14.8694 14.2217 14.8514 14.0897C14.8423 13.9796 14.8399 13.8691 14.8442 13.7587V10.2803H13.9902V14.019C13.9816 14.2557 14.007 14.4924 14.0658 14.7218C14.1043 14.8344 14.1802 14.9305 14.2807 14.9942C14.3812 15.0578 14.5005 15.0853 14.6187 15.0721C14.8137 15.0512 15.0019 14.9887 15.1705 14.8888C15.3392 14.7888 15.4844 14.6537 15.5963 14.4927V15.0085H16.4539V10.2839H16.4551ZM19.7043 11.7053C19.717 11.387 19.688 11.0684 19.618 10.7577C19.5846 10.6025 19.4977 10.464 19.3725 10.3664C19.2473 10.2689 19.0917 10.2184 18.9331 10.224C18.7565 10.2359 18.585 10.2881 18.4317 10.3767C18.2785 10.4653 18.1476 10.5878 18.0491 10.7349V8.66709H17.1951V15.0049H18.0491V14.5455C18.1467 14.6945 18.2771 14.819 18.4303 14.9097C18.5836 15.0004 18.7556 15.0547 18.9331 15.0685C19.0911 15.0735 19.2459 15.0233 19.3708 14.9265C19.4958 14.8298 19.5832 14.6925 19.618 14.5383C19.6866 14.2262 19.7156 13.9066 19.7043 13.5872V11.7053ZM22.9356 11.8252C22.9652 11.4358 22.873 11.0468 22.6717 10.7121C22.556 10.5557 22.4035 10.4302 22.2278 10.3465C22.0522 10.2628 21.8586 10.2236 21.6642 10.2323C21.4675 10.2232 21.2716 10.262 21.0933 10.3456C20.915 10.4292 20.7598 10.555 20.6411 10.7121C20.4376 11.0459 20.3453 11.4356 20.3772 11.8252V13.4804C20.3485 13.87 20.4447 14.2587 20.6519 14.5899C20.7723 14.7479 20.9293 14.8741 21.1095 14.9577C21.2896 15.0413 21.4875 15.0797 21.6858 15.0697C21.8874 15.0797 22.0882 15.038 22.2692 14.9486C22.4501 14.8592 22.6052 14.725 22.7197 14.5587C22.8257 14.4066 22.8939 14.2315 22.9188 14.0478C22.926 13.9614 22.938 13.7731 22.938 13.4948V13.3749H22.0696C22.0733 13.5682 22.0669 13.7616 22.0504 13.9542C22.0436 14.05 21.9997 14.1393 21.928 14.2032C21.8563 14.267 21.7625 14.3003 21.6666 14.296C21.3727 14.296 21.23 14.0777 21.23 13.6411V12.8015H22.9416V11.824L22.9356 11.8252ZM2.15898 12.4057V15.0013H1.19944V12.4057C1.04957 11.7177 0.853622 11.0405 0.612912 10.3787C0.413805 9.79096 0.202705 9.19364 0 8.59872H1.00753L1.68881 11.1115L2.3437 8.59872H3.31404L2.15898 12.4057ZM5.60736 14.5791C5.49272 14.7373 5.34076 14.8648 5.165 14.9502C4.98923 15.0356 4.79509 15.0762 4.59984 15.0685C4.40446 15.0771 4.21002 15.0368 4.03411 14.9514C3.85819 14.8659 3.70635 14.738 3.59231 14.5791C3.38501 14.2441 3.29005 13.8516 3.32124 13.4588V11.7892C3.28884 11.3948 3.38385 11.0005 3.59231 10.6641C3.70605 10.505 3.85783 10.3768 4.03382 10.2913C4.20981 10.2058 4.4044 10.1658 4.59984 10.1748C4.79528 10.1658 4.98987 10.2058 5.16585 10.2913C5.34184 10.3768 5.49363 10.505 5.60736 10.6641C5.8127 11.0017 5.9063 11.3954 5.87484 11.7892V13.4588C5.90618 13.8511 5.81255 14.2433 5.60736 14.5791ZM5.00764 11.6153C5.00764 11.1751 4.87211 10.9532 4.59384 10.9532C4.31557 10.9532 4.18003 11.1751 4.18003 11.6153V13.6244C4.18003 14.0645 4.31557 14.2864 4.59384 14.2864C4.87211 14.2864 5.00764 14.0645 5.00764 13.6244V11.6153ZM8.20654 15.0049V14.4855C8.09318 14.6484 7.94618 14.7851 7.77547 14.8863C7.60475 14.9875 7.41431 15.0508 7.21701 15.0721C7.09791 15.0846 6.97808 15.0565 6.87702 14.9922C6.77596 14.928 6.69963 14.8314 6.66047 14.7182C6.59957 14.4863 6.57409 14.2465 6.5849 14.007V10.2312H7.4461V13.7443C7.4395 13.8559 7.44311 13.968 7.45689 14.0789C7.47608 14.2141 7.54365 14.2816 7.6596 14.2816C7.83232 14.2816 8.01343 14.1461 8.20534 13.875V10.2276H9.07013V15.0013H8.20534L8.20654 15.0049Z" fill="black"/>
</svg>
